{"glyphs":{"0":{"ha":894,"x_min":31,"x_max":864,"o":"m 681 762 q 755 697 721 734 q 813 616 789 660 q 850 521 837 571 q 864 417 864 470 q 831 256 864 331 q 743 124 799 181 q 611 33 687 67 q 447 0 534 0 q 287 32 362 0 q 154 121 211 65 q 64 253 97 177 q 31 417 31 329 q 63 577 31 502 q 151 710 95 653 q 283 800 207 767 q 447 833 359 833 q 571 815 512 833 q 681 762 631 796 m 703 308 q 725 417 725 358 q 703 526 725 476 q 642 614 681 577 q 553 673 604 652 q 447 694 503 694 q 338 672 388 694 q 250 612 287 650 q 191 523 212 573 q 169 417 169 472 q 192 307 169 357 q 252 219 214 256 q 341 160 291 181 q 447 139 392 139 q 530 151 491 139 q 603 187 569 164 q 662 240 636 209 q 703 308 687 271 z "},"1":{"ha":273,"x_min":27,"x_max":235,"o":"m 166 833 q 215 813 194 833 q 235 764 235 793 l 235 0 l 96 0 l 96 694 l 27 694 l 27 833 l 166 833 l 166 833 z "},"2":{"ha":579,"x_min":32,"x_max":546,"o":"m 524 645 q 546 532 546 591 q 524 419 546 474 q 458 319 502 364 l 278 139 l 544 139 l 544 0 l 110 0 q 62 19 82 0 q 41 69 41 39 q 61 119 41 98 l 360 418 q 396 471 384 442 q 407 532 407 500 q 393 601 407 571 q 355 652 378 631 q 302 684 331 673 q 244 694 273 694 q 185 683 214 694 q 131 647 156 671 l 32 745 q 131 811 77 789 q 244 833 185 833 q 333 820 290 833 q 413 781 376 806 q 478 722 449 756 q 524 645 506 687 z "},"3":{"ha":568,"x_min":26,"x_max":540,"o":"m 452 514 q 518 414 496 469 q 540 301 540 359 q 513 177 540 232 q 445 82 487 121 q 349 21 403 43 q 239 0 294 0 q 125 22 181 0 q 26 88 70 44 l 125 186 q 178 150 149 162 q 239 139 207 139 q 306 153 276 139 q 357 190 336 168 q 390 242 379 213 q 401 301 401 271 q 387 368 401 338 q 350 419 373 397 q 298 451 327 440 q 239 463 269 463 l 239 602 q 273 616 260 602 q 285 648 285 630 q 270 682 285 669 q 239 694 256 694 l 169 694 l 169 833 l 239 833 q 313 818 279 833 q 371 777 346 803 q 410 718 396 752 q 424 648 424 684 q 418 601 424 623 q 400 556 411 579 q 452 514 429 537 z "},"4":{"ha":513,"x_min":25,"x_max":488,"o":"m 419 370 q 468 350 447 370 q 488 301 488 330 l 488 0 l 349 0 l 349 231 l 94 231 q 68 237 81 231 q 46 252 56 243 q 31 274 36 261 q 25 300 25 286 q 26 313 25 308 l 119 845 l 256 821 l 177 370 l 419 370 l 419 370 z "},"5":{"ha":594,"x_min":31,"x_max":564,"o":"m 476 514 q 542 414 520 469 q 564 301 564 359 q 538 178 564 233 q 469 83 512 122 q 373 22 427 44 q 263 0 319 0 q 150 22 205 0 q 50 88 94 44 l 148 186 q 202 150 173 162 q 263 139 231 139 q 330 153 300 139 q 381 190 360 168 q 414 242 403 213 q 425 301 425 271 q 411 368 425 338 q 374 419 397 397 q 322 451 351 440 q 263 463 294 463 q 148 416 198 463 l 31 477 l 94 833 l 494 833 l 494 694 l 211 694 l 193 594 q 263 602 227 602 q 377 579 322 602 q 476 514 431 556 z "},"6":{"ha":655,"x_min":27,"x_max":629,"o":"m 476 563 q 538 515 510 544 q 587 452 567 486 q 618 379 607 418 q 629 301 629 341 q 604 184 629 239 q 538 88 580 130 q 443 24 497 47 q 328 0 388 0 q 210 25 265 0 q 114 90 155 49 q 50 186 73 131 q 27 301 27 241 q 66 449 27 381 q 67 452 67 451 q 69 456 68 454 l 307 869 l 428 799 l 314 602 q 398 593 358 602 q 476 563 438 584 m 469 221 q 490 301 490 258 q 476 365 490 335 q 440 417 463 395 q 388 450 418 438 q 327 463 358 463 q 248 442 285 463 q 189 385 210 420 l 187 382 q 186 381 187 381 q 171 342 176 362 q 166 301 166 322 q 180 233 166 263 q 217 182 194 204 q 269 150 240 161 q 328 139 298 139 q 409 161 370 139 q 469 221 447 183 z "},"7":{"ha":470,"x_min":26,"x_max":443,"o":"m 373 833 q 400 828 387 833 q 422 813 412 822 q 437 791 431 804 q 443 764 443 779 q 443 758 443 761 q 442 752 443 755 l 307 -12 l 170 12 l 291 694 l 26 694 l 26 833 l 373 833 l 373 833 z "},"8":{"ha":659,"x_min":29,"x_max":631,"o":"m 497 550 q 594 444 558 508 q 631 301 631 380 q 606 183 631 238 q 542 88 582 129 q 446 24 501 47 q 330 0 391 0 q 213 24 268 0 q 117 88 158 47 q 52 183 76 129 q 29 301 29 238 q 66 448 29 381 q 169 556 104 514 q 144 648 144 598 q 159 720 144 686 q 198 779 173 754 q 257 819 223 804 q 330 833 291 833 q 401 819 368 833 q 460 779 435 804 q 500 720 485 754 q 515 648 515 686 q 508 600 515 623 q 490 556 502 576 q 497 550 495 552 m 287 666 q 283 648 283 658 q 297 614 283 627 q 330 602 311 602 q 363 616 349 602 q 376 648 376 630 q 362 681 376 667 q 330 694 348 694 q 303 687 314 694 q 287 666 292 679 m 479 238 q 492 301 492 269 q 478 365 492 335 q 443 416 465 394 q 391 450 420 438 q 330 463 362 463 q 267 450 296 463 q 215 416 237 438 q 180 364 193 394 q 168 301 168 334 q 180 238 168 268 q 214 187 193 209 q 265 152 235 165 q 330 139 294 139 q 420 167 380 139 q 479 238 460 194 z "},"9":{"ha":655,"x_min":26,"x_max":628,"o":"m 587 682 q 618 609 607 647 q 628 532 628 571 q 616 453 628 490 q 585 378 604 416 l 346 -34 l 226 35 l 340 231 q 216 255 273 231 q 116 319 158 279 q 50 415 74 360 q 26 532 26 469 q 50 650 26 594 q 115 745 74 705 q 211 810 156 786 q 326 833 266 833 q 404 823 366 833 q 475 794 442 813 q 538 747 509 775 q 587 682 566 719 m 468 453 q 489 532 489 490 q 475 597 489 568 q 438 649 461 627 q 387 682 416 670 q 326 694 357 694 q 260 681 290 694 q 209 644 231 667 q 176 592 188 621 q 165 532 165 563 q 179 466 165 495 q 216 415 193 436 q 268 382 239 394 q 327 370 296 370 q 406 392 369 370 q 466 449 444 413 l 467 451 q 467 452 467 452 q 468 453 468 452 z "}," ":{"ha":223,"x_min":0,"x_max":0,"o":""},"g":{"ha":660,"x_min":25,"x_max":627,"o":"m 627 -46 q 603 -164 627 -109 q 538 -259 579 -219 q 442 -324 497 -300 q 326 -347 387 -347 l 326 -208 q 390 -195 360 -208 q 441 -159 419 -181 q 475 -108 463 -137 q 488 -46 488 -79 l 488 47 q 413 13 455 25 q 326 0 370 0 q 208 24 263 0 q 113 89 154 48 q 49 185 72 130 q 25 301 25 240 q 49 419 25 364 q 114 514 73 473 q 210 578 155 555 q 326 602 265 602 q 444 578 389 602 q 539 513 498 554 q 603 417 580 472 q 627 301 627 362 l 627 -46 m 475 238 q 488 301 488 269 q 475 365 488 335 q 439 416 461 394 q 388 450 417 438 q 326 463 358 463 q 262 450 292 463 q 211 415 232 437 q 176 363 189 393 q 164 301 164 333 q 177 236 164 266 q 213 185 191 206 q 264 151 235 164 q 326 139 294 139 q 417 167 377 139 q 475 238 456 194 z "},"h":{"ha":525,"x_min":37,"x_max":500,"o":"m 398 562 q 472 480 444 531 q 500 370 500 429 l 500 0 l 361 0 l 361 370 q 354 407 361 390 q 333 437 346 424 q 304 456 320 449 q 269 463 287 463 q 232 456 249 463 q 202 435 215 448 q 183 406 190 422 q 176 370 176 389 l 176 0 l 37 0 l 37 370 l 37 926 l 176 926 l 176 582 q 179 583 177 583 q 269 602 221 602 q 338 591 305 602 q 398 562 370 581 z "},"i":{"ha":214,"x_min":37,"x_max":176,"o":"m 37 602 l 176 602 l 176 0 l 37 0 l 37 602 z "},"j":{"ha":358,"x_min":24,"x_max":325,"o":"m 186 602 l 325 602 l 325 -46 q 301 -164 325 -109 q 236 -259 277 -219 q 140 -324 195 -300 q 24 -347 85 -347 l 24 -208 q 88 -195 58 -208 q 139 -159 118 -181 q 174 -108 161 -137 q 186 -46 186 -79 l 186 602 z "},"k":{"ha":444,"x_min":37,"x_max":407,"o":"m 356 364 q 298 301 331 329 q 378 199 349 259 q 407 69 407 139 l 407 0 l 269 0 l 269 69 q 243 158 269 119 q 176 216 217 197 l 176 0 l 37 0 l 37 602 l 176 602 l 176 386 q 243 446 218 407 q 269 532 269 484 l 269 602 l 407 602 l 407 532 q 394 443 407 485 q 356 364 380 400 z "},"l":{"ha":214,"x_min":37,"x_max":176,"o":"m 37 926 l 176 926 l 176 0 l 37 0 l 37 926 z "},"m":{"ha":857,"x_min":35,"x_max":822,"o":"m 719 562 q 794 480 767 531 q 822 370 822 430 l 822 0 l 683 0 l 683 370 q 656 436 681 408 q 591 463 631 463 q 555 456 571 463 q 525 437 538 449 q 506 407 513 424 q 498 370 498 390 l 498 0 l 359 0 l 359 370 q 332 436 357 408 q 267 463 306 463 q 231 456 247 463 q 201 437 214 449 q 181 407 189 424 q 174 370 174 390 l 174 0 l 35 0 l 35 370 q 53 461 35 419 q 102 534 71 503 q 175 584 133 566 q 267 602 218 602 q 355 584 314 602 q 429 536 396 566 q 501 584 460 566 q 591 602 543 602 q 659 591 626 602 q 719 562 693 581 z "},"n":{"ha":531,"x_min":34,"x_max":497,"o":"m 394 562 q 469 480 442 531 q 497 370 497 430 l 497 0 l 358 0 l 358 370 q 331 436 356 408 q 266 463 306 463 q 230 456 246 463 q 200 437 213 449 q 181 407 188 424 q 173 370 173 390 l 173 0 l 34 0 l 34 370 q 52 461 34 419 q 101 534 70 503 q 175 584 132 566 q 266 602 217 602 q 334 591 301 602 q 394 562 368 581 z "},"o":{"ha":663,"x_min":31,"x_max":632,"o":"m 500 550 q 596 444 559 508 q 632 301 632 380 q 608 183 632 238 q 544 88 584 129 q 448 24 503 47 q 331 0 393 0 q 215 24 269 0 q 119 88 160 47 q 54 183 78 129 q 31 301 31 238 q 55 419 31 365 q 120 515 79 474 q 216 579 161 556 q 331 602 270 602 q 421 588 379 602 q 500 550 464 574 m 481 238 q 494 301 494 269 q 480 365 494 335 q 444 416 467 394 q 393 450 422 438 q 331 463 364 463 q 269 450 298 463 q 217 416 239 438 q 182 364 194 394 q 169 301 169 334 q 182 238 169 268 q 216 187 194 208 q 268 152 238 165 q 331 139 297 139 q 422 166 381 139 q 481 238 462 194 z "},"p":{"ha":660,"x_min":34,"x_max":636,"o":"m 503 550 q 600 444 564 508 q 636 301 636 380 q 612 182 636 237 q 546 87 587 128 q 450 23 505 46 q 335 0 395 0 l 334 0 q 249 13 290 0 q 173 47 208 25 l 173 -278 l 34 -278 l 34 301 q 58 419 34 364 q 123 515 81 474 q 219 579 164 556 q 335 602 273 602 q 425 588 382 602 q 503 550 468 574 m 484 238 q 497 301 497 269 q 484 366 497 336 q 448 417 470 395 q 396 451 425 439 q 335 463 367 463 q 271 450 301 463 q 220 415 242 437 q 186 363 198 393 q 173 301 173 334 q 186 236 173 266 q 221 185 199 206 q 272 151 243 164 q 335 139 302 139 q 425 167 385 139 q 484 238 466 194 z "},"q":{"ha":661,"x_min":24,"x_max":626,"o":"m 493 550 q 590 444 554 508 q 626 301 626 380 l 626 -278 l 487 -278 l 487 47 q 410 13 451 25 q 325 0 369 0 l 324 0 q 207 24 262 0 q 112 88 153 47 q 48 183 71 129 q 24 301 24 238 q 48 419 24 364 q 113 515 71 474 q 208 579 154 556 q 325 602 263 602 q 415 588 372 602 q 493 550 457 574 m 474 238 q 487 301 487 269 q 474 366 487 336 q 438 417 460 395 q 386 451 415 439 q 325 463 356 463 q 261 450 291 463 q 210 415 231 437 q 175 363 188 393 q 163 301 163 334 q 176 236 163 266 q 211 185 189 206 q 262 151 232 164 q 325 139 292 139 q 415 167 375 139 q 474 238 456 194 z "},"r":{"ha":356,"x_min":31,"x_max":331,"o":"m 81 469 q 189 566 123 531 q 331 602 255 602 l 331 463 q 268 450 297 463 q 216 415 238 437 q 182 363 194 393 q 169 301 169 334 l 169 0 l 31 0 l 31 301 q 44 391 31 348 q 81 469 57 433 z "},"s":{"ha":433,"x_min":31,"x_max":402,"o":"m 320 339 q 380 273 357 313 q 402 185 402 232 q 387 113 402 146 q 347 54 372 79 q 288 14 321 29 q 217 0 254 0 l 55 0 l 55 139 l 217 139 q 250 153 236 139 q 263 185 263 167 q 249 218 263 204 q 217 231 235 231 q 144 246 178 231 q 85 287 110 261 q 46 345 60 312 q 31 417 31 379 q 46 488 31 455 q 86 547 61 522 q 145 587 111 572 q 217 602 179 602 l 379 602 l 379 463 l 217 463 q 183 449 195 463 q 170 417 170 434 q 184 383 170 395 q 217 370 198 370 q 272 362 245 370 q 320 339 298 354 z "},"t":{"ha":470,"x_min":27,"x_max":444,"o":"m 27 602 l 444 602 l 444 463 l 305 463 l 305 0 l 166 0 l 166 463 l 27 463 l 27 602 z "},"u":{"ha":531,"x_min":34,"x_max":497,"o":"m 358 602 l 497 602 l 497 231 q 479 140 497 182 q 430 67 461 98 q 356 18 398 36 q 266 0 314 0 q 176 18 219 0 q 103 68 134 36 q 53 141 71 99 q 34 231 34 183 l 34 602 l 173 602 l 173 231 q 181 194 173 211 q 201 165 189 177 q 231 146 214 153 q 266 139 247 139 q 302 146 285 139 q 332 166 319 154 q 351 196 344 179 q 358 231 358 213 l 358 602 z "},"w":{"ha":857,"x_min":35,"x_max":822,"o":"m 683 602 l 822 602 l 822 231 q 804 140 822 182 q 755 67 786 98 q 681 18 723 36 q 591 0 639 0 q 503 18 544 0 q 429 66 462 35 q 355 18 396 35 q 267 0 314 0 q 177 18 219 0 q 104 68 135 36 q 54 141 72 99 q 35 231 35 183 l 35 602 l 174 602 l 174 231 q 182 194 174 211 q 202 165 190 177 q 231 146 215 153 q 267 139 248 139 q 303 146 286 139 q 333 166 320 154 q 352 196 345 179 q 359 231 359 213 l 359 602 l 498 602 l 498 231 q 506 194 498 211 q 526 165 514 177 q 556 146 539 153 q 591 139 572 139 q 627 146 610 139 q 656 165 644 153 q 676 195 669 178 q 683 231 683 212 l 683 602 z "},"x":{"ha":531,"x_min":37,"x_max":500,"o":"m 269 494 q 370 572 310 543 q 500 602 431 602 l 500 463 q 437 450 467 463 q 385 415 407 437 q 350 363 363 393 q 338 301 338 333 q 351 237 338 267 q 386 186 364 207 q 438 151 408 164 q 500 139 468 139 l 500 0 q 370 30 430 0 q 269 108 310 59 q 167 29 227 58 q 37 0 106 0 l 37 139 q 100 151 70 139 q 152 186 130 164 q 187 238 174 208 q 199 301 199 268 q 187 363 199 333 q 153 415 174 393 q 101 450 131 437 q 37 463 71 463 l 37 602 q 167 572 106 602 q 269 494 228 543 z "},"y":{"ha":526,"x_min":29,"x_max":492,"o":"m 353 602 l 492 602 l 492 -46 q 468 -165 492 -110 q 402 -261 444 -220 q 306 -324 361 -301 q 191 -347 252 -347 l 191 -208 q 254 -196 224 -208 q 306 -161 283 -183 q 340 -109 328 -139 q 353 -46 353 -80 l 353 19 q 351 19 352 19 q 260 0 308 0 q 171 18 213 0 q 97 68 129 36 q 47 141 66 99 q 29 231 29 183 l 29 602 l 168 602 l 168 231 q 175 194 168 211 q 196 165 183 177 q 225 146 208 153 q 260 139 242 139 q 296 146 280 139 q 325 165 313 153 q 345 195 338 178 q 353 231 353 212 l 353 602 z "},"z":{"ha":413,"x_min":33,"x_max":380,"o":"m 181 144 q 180 141 181 142 q 179 139 179 141 l 183 139 l 369 139 l 369 0 l 183 0 q 120 10 148 0 q 73 38 93 20 q 44 79 54 56 q 33 127 33 102 q 43 177 33 153 q 68 223 52 202 l 232 458 q 234 461 233 460 q 235 463 234 461 l 230 463 l 44 463 l 44 602 l 230 602 q 293 591 265 602 q 340 563 320 581 q 369 523 359 546 q 380 475 380 500 q 371 424 380 448 q 346 379 362 400 l 181 144 z "},"/":{"ha":372,"x_min":24,"x_max":348,"o":"m 348 982 l 161 -81 l 24 -56 l 212 1006 l 348 982 z "},"\"":{"ha":383,"x_min":30,"x_max":354,"o":"m 235 813 q 284 833 256 833 q 333 813 313 833 q 354 764 354 793 q 349 738 354 751 q 333 715 344 724 l 235 625 l 235 715 q 220 738 225 725 q 215 764 215 751 q 235 813 215 793 m 148 813 q 169 764 169 791 q 148 715 169 735 l 148 625 l 50 715 q 35 738 40 724 q 30 764 30 751 q 50 813 30 793 q 99 833 70 833 q 148 813 126 833 z "},"#":{"ha":709,"x_min":27,"x_max":682,"o":"m 568 671 l 682 671 l 682 532 l 544 532 l 515 370 l 629 370 l 629 231 l 491 231 l 460 58 l 323 82 l 349 231 l 282 231 l 252 58 l 115 82 l 141 231 l 27 231 l 27 370 l 166 370 l 194 532 l 81 532 l 81 671 l 219 671 l 249 844 l 386 820 l 359 671 l 427 671 l 457 844 l 594 820 l 568 671 m 403 532 l 335 532 l 306 370 l 374 370 l 403 532 z "},"%":{"ha":840,"x_min":26,"x_max":813,"o":"m 731 385 q 791 319 769 359 q 813 231 813 279 q 798 159 813 193 q 758 100 783 125 q 699 61 732 75 q 628 46 665 46 q 563 58 593 46 q 508 90 532 69 q 468 138 484 110 q 445 199 452 167 l 420 58 l 283 82 l 366 546 q 365 544 365 545 q 299 485 339 506 q 211 463 258 463 q 138 478 172 463 q 80 518 105 493 q 40 577 55 544 q 26 648 26 610 q 41 720 26 686 q 81 779 56 754 q 139 819 106 804 q 211 833 173 833 q 273 823 243 833 q 327 793 303 812 q 368 748 351 774 q 391 692 384 722 l 418 844 l 555 820 l 468 324 q 533 391 489 366 q 628 417 578 417 q 683 408 656 417 q 731 385 709 400 m 254 631 q 256 639 256 635 q 257 648 257 644 q 244 681 257 667 q 211 694 230 694 q 177 680 190 694 q 165 648 165 666 q 179 614 165 627 q 211 602 193 602 q 254 631 242 602 m 670 214 q 673 223 672 219 q 674 231 674 227 q 660 264 674 250 q 628 278 646 278 q 594 263 606 278 q 581 231 581 249 q 595 198 581 210 q 628 185 609 185 q 670 214 658 185 z "},"'":{"ha":192,"x_min":26,"x_max":165,"o":"m 144 813 q 165 764 165 793 q 160 738 165 751 q 144 715 155 725 l 95 625 l 46 715 q 31 738 36 725 q 26 764 26 751 q 47 813 26 793 q 95 833 68 833 q 144 813 122 833 z "},"(":{"ha":383,"x_min":26,"x_max":355,"o":"m 355 923 q 215 715 265 832 q 165 463 165 598 q 215 210 165 327 q 355 3 265 93 l 256 -95 q 160 22 203 -42 q 88 156 118 85 q 42 304 57 227 q 26 463 26 381 q 42 622 26 544 q 88 770 57 699 q 160 904 118 841 q 256 1021 203 968 l 355 923 l 355 923 z "},")":{"ha":384,"x_min":29,"x_max":358,"o":"m 127 1021 q 296 770 234 913 q 358 463 358 628 q 296 155 358 298 q 127 -95 234 12 l 29 3 q 169 210 119 93 q 219 463 219 327 q 169 716 219 599 q 29 923 119 833 l 127 1021 l 127 1021 z "},"*":{"ha":514,"x_min":27,"x_max":487,"o":"m 478 706 q 487 671 487 687 q 478 638 487 654 q 452 611 469 621 l 396 579 l 452 546 q 478 520 469 536 q 487 485 487 504 q 465 435 487 454 q 418 417 443 417 q 382 426 398 417 l 327 458 l 327 394 q 306 344 327 365 q 257 324 286 324 q 208 344 228 324 q 188 394 188 365 l 188 458 l 131 426 q 96 417 116 417 q 72 421 84 417 q 50 435 59 426 q 33 456 40 444 q 27 485 27 469 q 36 520 27 504 q 62 546 44 536 l 119 579 l 62 611 q 36 638 44 621 q 27 672 27 654 q 48 722 27 703 q 96 741 69 741 q 131 731 116 741 l 188 699 l 188 764 q 208 813 188 793 q 257 833 228 833 q 306 813 286 833 q 327 764 327 793 l 327 699 l 382 731 q 417 741 398 741 q 451 731 435 741 q 478 706 468 722 z "},"+":{"ha":513,"x_min":25,"x_max":488,"o":"m 326 370 l 488 370 l 488 231 l 326 231 l 326 69 l 187 69 l 187 231 l 25 231 l 25 370 l 187 370 l 187 532 l 326 532 l 326 370 z "},",":{"ha":194,"x_min":30,"x_max":169,"o":"m 51 119 q 99 139 71 139 q 149 119 128 139 q 169 69 169 98 q 164 43 169 56 q 149 20 159 30 l 51 -69 l 51 20 q 35 44 41 31 q 30 69 30 56 q 51 119 30 97 z "},".":{"ha":200,"x_min":31,"x_max":169,"o":"m 169 69 q 150 20 169 41 q 100 0 130 0 q 51 20 71 0 q 31 69 31 41 q 51 119 31 98 q 100 139 71 139 q 150 119 130 139 q 169 69 169 98 z "},"-":{"ha":399,"x_min":37,"x_max":361,"o":"m 37 370 l 361 370 l 361 231 l 37 231 l 37 370 z "},":":{"ha":204,"x_min":32,"x_max":171,"o":"m 171 69 q 151 20 171 41 q 102 0 131 0 q 53 20 73 0 q 32 69 32 41 q 53 119 32 98 q 102 139 73 139 q 151 119 131 139 q 171 69 171 98 m 171 463 q 151 414 171 434 q 102 394 131 394 q 53 414 73 394 q 32 463 32 434 q 53 512 32 492 q 102 532 73 532 q 151 512 131 532 q 171 463 171 492 z "},";":{"ha":195,"x_min":31,"x_max":169,"o":"m 169 463 q 150 414 169 434 q 100 394 130 394 q 51 414 71 394 q 31 463 31 434 q 51 512 31 492 q 100 532 71 532 q 150 512 130 532 q 169 463 169 492 m 51 119 q 31 69 31 98 q 36 44 31 56 q 51 20 41 31 l 51 -69 l 149 20 q 164 44 159 31 q 169 69 169 56 q 149 118 169 97 q 100 139 128 139 q 51 119 73 139 z "},"$":{"ha":425,"x_min":28,"x_max":398,"o":"m 187 618 q 167 579 167 603 q 181 545 167 557 q 213 532 195 532 q 286 518 252 532 q 344 477 319 503 q 384 418 369 452 q 398 347 398 384 q 385 279 398 311 q 350 223 372 247 q 297 182 327 198 q 232 163 267 167 l 214 58 l 77 82 l 98 202 q 47 266 66 229 q 28 347 28 303 l 167 347 q 175 321 167 331 q 194 305 182 310 l 216 301 q 247 316 235 303 q 259 347 259 329 q 245 380 259 366 q 213 394 231 394 q 140 408 174 394 q 81 449 106 423 q 42 507 56 474 q 28 579 28 541 q 41 647 28 615 q 77 705 55 680 q 131 745 100 730 q 197 763 162 761 l 212 844 l 348 820 l 331 721 q 380 658 362 696 q 398 579 398 620 l 259 579 q 245 611 259 597 q 213 625 231 625 q 187 618 199 625 z "},"&":{"ha":656,"x_min":29,"x_max":631,"o":"m 399 440 l 631 440 l 631 301 q 606 182 631 237 q 540 87 581 128 q 444 23 499 46 q 330 0 390 0 q 213 24 268 0 q 117 88 158 47 q 52 183 76 129 q 29 301 29 238 q 66 448 29 381 q 169 556 104 514 q 150 601 156 580 q 144 648 144 623 q 161 726 144 692 q 204 785 178 761 q 263 821 231 808 q 330 833 296 833 l 399 833 l 399 694 l 330 694 q 296 681 308 694 q 283 648 283 667 q 298 614 283 627 q 330 602 312 602 l 330 463 q 266 450 295 463 q 214 415 236 437 q 180 363 193 393 q 168 301 168 334 q 181 236 168 266 q 216 185 194 206 q 267 151 238 163 q 330 139 296 139 q 393 152 363 139 q 444 187 422 165 q 479 239 467 209 q 492 301 492 269 l 399 301 l 399 440 z "},"!":{"ha":258,"x_min":59,"x_max":198,"o":"m 198 69 q 178 20 198 41 q 129 0 158 0 q 80 20 100 0 q 59 69 59 41 q 80 119 59 98 q 129 139 100 139 q 178 119 158 139 q 198 69 198 98 m 198 926 l 198 856 l 198 255 q 178 206 198 226 q 129 185 158 185 q 80 206 100 185 q 59 255 59 226 l 59 856 l 59 926 l 129 926 l 198 926 z "},"<":{"ha":454,"x_min":24,"x_max":423,"o":"m 423 555 l 189 301 l 423 47 l 320 -47 l 43 254 q 29 276 33 264 q 24 301 25 288 q 43 348 24 328 l 320 649 l 423 555 z "},"=":{"ha":527,"x_min":37,"x_max":500,"o":"m 37 509 l 500 509 l 500 370 l 37 370 l 37 509 m 37 231 l 500 231 l 500 93 l 37 93 l 37 231 z "},">":{"ha":453,"x_min":31,"x_max":429,"o":"m 411 348 q 425 326 420 338 q 429 301 429 314 q 425 276 429 288 q 411 254 420 264 l 133 -47 l 31 47 l 265 301 l 31 555 l 133 649 l 411 348 z "},"?":{"ha":564,"x_min":25,"x_max":539,"o":"m 451 838 q 516 741 493 794 q 539 625 539 687 q 521 524 539 572 q 473 437 504 476 q 399 371 442 398 q 307 332 356 344 l 307 185 l 169 185 l 169 394 q 189 443 169 422 q 238 463 209 463 q 302 476 272 463 q 353 511 331 489 q 388 563 375 533 q 400 625 400 593 q 387 689 400 659 q 352 740 374 719 q 300 775 330 762 q 238 787 270 787 q 175 774 206 787 q 123 740 144 761 l 25 838 q 122 903 68 880 q 238 926 176 926 q 354 903 300 926 q 451 838 407 880 m 307 69 q 287 20 307 41 q 238 0 267 0 q 189 20 209 0 q 169 69 169 41 q 189 119 169 98 q 238 139 209 139 q 287 119 267 139 q 307 69 307 98 z "},"@":{"ha":894,"x_min":31,"x_max":864,"o":"m 831 579 q 856 500 847 541 q 864 417 864 460 q 836 266 864 337 q 759 140 808 195 q 641 48 709 84 q 494 3 573 12 l 494 237 q 447 231 471 231 q 375 246 408 231 q 316 287 341 261 q 276 345 291 312 q 262 417 262 379 q 277 489 262 456 q 317 548 292 523 q 376 588 343 573 q 447 602 409 602 q 520 587 486 602 q 579 547 554 572 q 618 488 604 521 q 632 417 632 454 l 632 209 q 700 302 676 248 q 725 417 725 356 q 703 526 725 476 q 642 614 681 577 q 553 673 604 652 q 447 694 503 694 q 338 672 388 694 q 250 612 287 650 q 191 523 212 573 q 169 417 169 472 q 183 330 169 371 q 222 253 197 288 q 281 193 247 219 q 355 155 315 168 l 355 10 q 226 64 285 27 q 123 154 167 101 q 55 275 80 207 q 31 417 31 342 q 63 577 31 502 q 151 710 95 653 q 283 800 207 767 q 447 833 359 833 q 570 815 511 833 q 679 763 629 796 q 768 682 729 730 q 831 579 806 635 m 490 399 q 494 417 494 406 q 480 450 494 437 q 447 463 466 463 q 414 450 428 463 q 401 417 401 436 q 415 383 401 396 q 447 370 429 370 q 474 378 463 370 q 490 399 484 386 z "},"[":{"ha":344,"x_min":37,"x_max":315,"o":"m 37 1065 l 315 1065 l 315 926 l 176 926 l 176 0 l 315 0 l 315 -139 l 37 -139 l 37 1065 z "},"\\":{"ha":372,"x_min":24,"x_max":348,"o":"m 160 1006 l 348 -56 l 211 -81 l 24 982 l 160 1006 z "},"]":{"ha":344,"x_min":29,"x_max":306,"o":"m 29 1065 l 306 1065 l 306 -139 l 29 -139 l 29 0 l 168 0 l 168 926 l 29 926 l 29 1065 z "},"^":{"ha":634,"x_min":27,"x_max":607,"o":"m 144 495 l 27 569 l 208 860 q 255 907 227 889 q 317 926 282 926 q 381 907 353 926 q 426 860 408 888 l 607 569 l 490 495 l 317 772 l 144 495 z "},"_":{"ha":1000,"x_min":37,"x_max":963,"o":"m 37 -208 l 963 -208 l 963 -347 l 37 -347 l 37 -208 z "},"{":{"ha":382,"x_min":24,"x_max":348,"o":"m 156 963 q 239 1037 188 1009 q 348 1065 290 1065 l 348 926 q 312 919 329 926 q 282 898 294 911 q 263 869 269 885 q 256 833 256 852 l 256 625 q 238 537 256 577 q 190 463 220 496 q 238 390 219 431 q 256 301 256 348 l 256 93 q 263 56 256 73 q 283 26 270 39 q 313 7 296 14 q 348 0 330 0 l 348 -139 q 258 -120 300 -139 q 184 -70 216 -102 q 135 3 153 -39 q 117 93 117 45 l 117 301 q 109 338 117 320 q 89 367 102 355 q 59 387 76 380 q 24 394 43 394 l 24 532 q 61 540 44 532 q 90 560 78 547 q 110 590 103 573 q 117 625 117 606 l 117 833 q 127 902 117 869 q 156 963 138 935 z "},"|":{"ha":214,"x_min":37,"x_max":176,"o":"m 37 1065 l 176 1065 l 176 -139 l 37 -139 l 37 1065 z "},"}":{"ha":381,"x_min":33,"x_max":357,"o":"m 281 573 q 313 544 294 555 q 357 532 333 532 l 357 394 q 321 386 338 394 q 291 366 304 379 q 272 336 279 353 q 265 301 265 319 l 265 93 q 246 2 265 44 q 196 -71 228 -40 q 123 -121 165 -103 q 33 -139 81 -139 l 33 0 q 70 7 53 0 q 100 28 87 15 q 119 57 112 41 q 126 93 126 74 l 126 301 q 144 390 126 348 q 193 463 161 431 q 144 536 161 494 q 126 625 126 578 l 126 833 q 119 870 126 853 q 98 900 111 887 q 69 919 85 912 q 33 926 52 926 l 33 1065 q 124 1046 81 1065 q 197 996 166 1028 q 247 923 229 965 q 265 833 265 881 l 265 625 q 281 573 265 596 z "},"~":{"ha":602,"x_min":30,"x_max":572,"o":"m 488 779 q 572 696 539 751 l 452 627 q 419 658 439 648 q 378 669 399 669 q 335 657 356 669 l 323 679 l 335 657 q 281 635 309 642 q 224 628 253 628 q 113 657 164 628 q 30 739 62 686 l 150 808 q 182 777 163 787 q 224 767 202 767 q 266 778 246 767 q 321 800 293 794 q 378 807 349 807 q 435 800 407 807 q 488 779 463 794 z "},"…":{"ha":583,"x_min":35,"x_max":548,"o":"m 174 69 q 154 20 174 41 q 105 0 134 0 q 56 20 76 0 q 35 69 35 41 q 56 119 35 98 q 105 139 76 139 q 154 119 134 139 q 174 69 174 98 m 361 69 q 341 20 361 41 q 292 0 321 0 q 243 20 263 0 q 222 69 222 41 q 243 119 222 98 q 292 139 263 139 q 341 119 321 139 q 361 69 361 98 m 548 69 q 528 20 548 41 q 479 0 508 0 q 430 20 450 0 q 409 69 409 41 q 430 119 409 98 q 479 139 450 139 q 528 119 508 139 q 548 69 548 98 z "},"›":{"ha":453,"x_min":31,"x_max":429,"o":"m 411 348 q 425 326 420 338 q 429 301 429 314 q 425 276 429 288 q 411 254 420 264 l 133 -47 l 31 47 l 265 301 l 31 555 l 133 649 l 411 348 z "},"‹":{"ha":454,"x_min":24,"x_max":423,"o":"m 423 555 l 189 301 l 423 47 l 320 -47 l 43 254 q 29 276 33 264 q 24 301 25 288 q 43 348 24 328 l 320 649 l 423 555 z "},"‚":{"ha":193,"x_min":26,"x_max":166,"o":"m 145 119 q 166 69 166 96 q 145 20 166 41 l 96 -69 l 47 20 q 26 69 26 40 q 46 118 26 96 q 95 139 67 139 q 145 119 123 139 z "},"ƒ":{"ha":626,"x_min":24,"x_max":602,"o":"m 431 904 q 544 926 485 926 q 602 920 574 926 l 575 784 q 544 787 559 787 q 475 772 506 787 q 425 734 445 757 q 393 681 404 710 q 382 625 382 653 l 382 602 l 521 602 l 521 463 l 382 463 l 382 -46 q 355 -175 382 -119 q 283 -270 327 -231 q 185 -328 239 -308 q 80 -347 131 -347 q 24 -342 50 -347 l 50 -206 q 80 -208 65 -208 q 146 -195 116 -208 q 198 -159 177 -181 q 231 -107 219 -136 q 244 -46 244 -78 l 244 463 l 105 463 l 105 602 l 244 602 l 244 625 q 257 713 244 670 q 295 792 270 756 q 354 857 319 829 q 431 904 389 886 z "},"„":{"ha":384,"x_min":30,"x_max":355,"o":"m 236 119 q 284 139 256 139 q 334 118 313 139 q 355 69 355 97 q 350 43 355 56 q 334 20 344 30 l 236 -69 l 236 20 q 215 69 215 40 q 236 119 215 97 m 149 119 q 169 69 169 96 q 149 20 169 41 l 149 -69 l 51 20 q 30 69 30 40 q 50 118 30 96 q 99 139 70 139 q 149 119 127 139 z "},"†":{"ha":372,"x_min":24,"x_max":348,"o":"m 256 741 l 348 741 l 348 602 l 256 602 l 256 -139 l 117 -139 l 117 602 l 24 602 l 24 741 l 117 741 l 117 926 l 256 926 l 256 741 z "},"‡":{"ha":374,"x_min":25,"x_max":349,"o":"m 256 741 l 349 741 l 349 602 l 256 602 l 256 301 l 326 301 l 326 162 l 256 162 l 256 -139 l 118 -139 l 118 162 l 48 162 l 48 301 l 118 301 l 118 602 l 25 602 l 25 741 l 118 741 l 118 926 l 256 926 l 256 741 z "},"‰":{"ha":1118,"x_min":28,"x_max":1093,"o":"m 1010 385 q 1070 319 1048 359 q 1093 231 1093 280 q 1078 160 1093 194 q 1039 101 1064 126 q 980 61 1014 76 q 907 46 946 46 q 831 63 866 46 q 769 108 795 79 q 706 63 742 79 q 630 46 671 46 q 565 58 596 46 q 510 90 534 69 q 469 138 485 110 q 447 199 452 166 l 422 58 l 285 82 l 367 545 q 301 485 342 507 q 213 463 261 463 l 212 463 q 141 477 174 463 q 82 517 107 492 q 43 575 57 542 q 28 648 28 609 q 42 720 28 686 q 81 779 56 754 q 140 819 106 804 q 213 833 174 833 q 275 823 246 833 q 328 793 305 812 q 368 747 351 773 q 393 691 384 721 l 419 844 l 556 820 l 469 324 q 472 330 470 327 q 476 335 474 332 q 541 394 500 372 q 630 417 582 417 q 707 399 672 417 q 769 354 742 381 q 829 400 793 382 q 907 417 866 417 q 963 408 936 417 q 1010 385 989 400 m 256 630 q 258 639 257 634 q 259 648 259 644 q 245 681 257 668 q 213 694 232 694 q 181 681 194 694 q 167 648 167 669 q 180 614 167 627 q 213 602 194 602 q 238 610 227 602 q 256 630 250 618 m 672 213 q 675 222 674 218 q 676 231 676 227 q 662 264 674 251 q 630 278 649 278 q 597 265 611 278 q 583 231 583 252 q 597 198 583 210 q 630 185 610 185 q 655 193 644 185 q 672 213 667 201 m 950 213 q 953 222 952 218 q 954 231 954 227 q 939 264 952 251 q 907 278 927 278 q 875 265 889 278 q 861 231 861 252 q 875 198 861 210 q 907 185 888 185 q 933 193 921 185 q 950 213 944 201 z "},"‘":{"ha":194,"x_min":24,"x_max":164,"o":"m 144 813 q 164 763 164 791 q 144 715 164 735 l 144 625 l 45 715 q 24 763 24 734 q 44 812 24 791 q 94 833 65 833 q 144 813 121 833 z "},"“":{"ha":388,"x_min":30,"x_max":355,"o":"m 334 813 q 355 763 355 791 q 334 715 355 735 l 334 625 l 236 715 q 215 763 215 734 q 235 812 215 791 q 284 833 256 833 q 334 813 312 833 m 149 813 q 169 763 169 791 q 149 715 169 735 l 149 625 l 51 715 q 30 763 30 734 q 50 812 30 791 q 99 833 70 833 q 149 813 127 833 z "},"•":{"ha":339,"x_min":31,"x_max":308,"o":"m 308 301 q 297 247 308 272 q 268 203 286 221 q 224 173 249 184 q 169 162 198 162 q 116 173 141 162 q 72 203 91 184 q 42 247 53 221 q 31 301 31 272 q 42 355 31 330 q 72 399 53 381 q 116 429 91 418 q 169 440 141 440 q 224 429 198 440 q 268 399 249 418 q 297 355 286 381 q 308 301 308 330 z "},"–":{"ha":537,"x_min":37,"x_max":500,"o":"m 37 370 l 500 370 l 500 231 l 37 231 l 37 370 z "},"—":{"ha":861,"x_min":37,"x_max":824,"o":"m 37 370 l 824 370 l 824 231 l 37 231 l 37 370 z "},"™":{"ha":718,"x_min":33,"x_max":681,"o":"m 103 741 l 33 741 l 33 833 l 265 833 l 265 741 l 195 741 l 195 520 l 103 520 l 103 741 m 265 706 q 275 756 265 732 q 302 796 285 779 q 343 824 319 814 q 392 833 366 833 q 473 804 438 833 q 510 825 489 818 q 554 833 531 833 q 603 823 580 833 q 644 795 626 813 q 671 755 661 778 q 681 706 681 731 l 681 520 l 589 520 l 589 706 q 579 731 589 720 q 554 741 569 741 q 530 731 540 741 q 519 706 519 720 l 519 520 l 427 520 l 427 706 q 417 731 427 720 q 392 741 406 741 q 368 731 378 741 q 357 706 357 720 l 357 520 l 265 520 l 265 706 z "},"œ":{"ha":905,"x_min":31,"x_max":872,"o":"m 598 451 q 549 418 571 439 q 513 370 527 397 l 729 370 l 729 231 l 513 231 q 575 162 536 185 q 659 139 615 139 q 720 150 691 139 q 774 186 750 162 l 872 88 q 773 22 829 44 q 659 0 717 0 q 575 12 617 0 q 496 48 533 24 q 332 0 417 0 q 205 27 261 0 q 111 98 149 55 q 52 194 72 141 q 31 301 31 248 q 56 421 31 366 q 124 517 81 477 q 220 579 166 556 q 332 602 274 602 q 496 554 419 602 q 575 590 532 578 q 659 602 617 602 q 773 580 718 602 q 872 514 828 558 l 774 415 q 721 451 751 439 q 659 463 691 463 q 598 451 630 463 m 381 187 q 358 301 358 243 q 368 377 358 340 q 398 449 378 415 q 366 460 384 456 q 332 463 348 463 q 263 448 294 463 q 213 410 233 433 q 181 357 192 386 q 170 301 170 329 q 184 234 170 264 q 221 183 198 205 q 273 150 244 162 q 332 139 302 139 q 365 142 348 139 q 398 153 382 145 q 389 170 394 161 q 381 187 384 179 z "},"¡":{"ha":210,"x_min":35,"x_max":174,"o":"m 35 579 q 55 628 35 607 q 105 648 75 648 q 154 628 133 648 q 174 579 174 607 q 154 529 174 549 q 105 509 133 509 q 55 529 75 509 q 35 579 35 549 m 105 463 q 55 443 75 463 q 35 394 35 422 l 35 -278 l 174 -278 l 174 394 q 154 443 174 422 q 105 463 133 463 z "},"¢":{"ha":566,"x_min":27,"x_max":540,"o":"m 213 577 q 177 524 189 553 q 166 463 166 495 q 180 395 166 425 q 217 344 194 365 q 269 312 240 323 q 328 301 298 301 q 388 313 357 301 q 442 348 418 324 l 540 250 q 460 192 505 214 q 374 166 416 170 l 374 93 l 235 93 l 235 176 q 225 180 230 178 q 214 184 219 182 q 133 232 168 202 q 75 300 98 262 q 39 379 51 337 q 27 463 27 421 q 41 552 27 506 q 83 637 56 597 q 149 707 110 677 q 235 749 187 737 l 235 833 l 374 833 l 374 760 q 462 732 419 753 q 540 676 505 711 l 442 577 q 388 613 419 601 q 328 625 357 625 q 266 613 296 625 q 213 577 235 601 z "},"£":{"ha":734,"x_min":27,"x_max":709,"o":"m 538 157 q 589 208 571 177 l 709 139 q 664 80 691 106 q 607 37 638 55 q 541 10 576 19 q 471 1 506 1 l 470 1 q 400 10 435 1 q 333 38 366 19 q 266 56 302 56 q 197 38 229 56 q 147 -12 166 20 l 27 57 q 85 127 51 99 q 159 174 119 156 l 159 389 l 67 389 l 67 528 l 159 528 l 159 637 q 182 748 159 698 q 244 833 206 797 q 330 888 281 869 q 429 906 379 906 q 455 905 442 906 q 481 902 468 904 l 454 765 q 429 768 441 768 q 374 756 398 768 q 332 725 349 744 q 307 683 316 706 q 298 637 298 660 l 298 528 l 391 528 l 391 389 l 298 389 l 298 194 q 403 158 352 187 q 471 140 435 140 q 538 157 506 140 z "},"¤":{"ha":689,"x_min":33,"x_max":656,"o":"m 656 676 l 600 620 q 633 546 621 586 q 645 463 645 506 q 633 379 645 419 q 600 305 621 340 l 656 250 l 557 152 l 502 206 q 428 174 469 185 q 344 162 387 162 q 186 206 257 162 l 131 152 l 33 250 l 88 305 q 44 463 44 373 q 55 546 44 506 q 88 620 67 586 l 33 676 l 131 774 l 186 719 q 261 752 220 741 q 344 764 301 764 q 428 752 388 764 q 502 719 468 740 l 557 774 l 656 676 m 494 400 q 506 463 506 431 q 494 527 506 497 q 458 578 481 556 q 406 613 436 600 q 344 625 377 625 q 281 613 311 625 q 230 578 252 600 q 195 526 207 556 q 182 463 182 496 q 194 401 182 431 q 228 349 206 371 q 280 314 250 327 q 344 301 309 301 q 435 328 394 301 q 494 400 475 355 z "},"¥":{"ha":686,"x_min":27,"x_max":659,"o":"m 413 370 l 506 370 l 506 231 l 413 231 l 413 185 l 506 185 l 506 46 l 413 46 l 413 0 l 274 0 l 274 46 l 181 46 l 181 185 l 274 185 l 274 231 l 181 231 l 181 370 l 274 370 l 274 419 q 246 450 258 432 q 226 486 233 467 l 27 864 l 150 928 l 344 561 l 536 928 l 659 864 l 461 486 q 442 450 453 468 q 413 419 431 433 l 413 370 z "},"§":{"ha":435,"x_min":32,"x_max":403,"o":"m 362 347 q 392 294 381 323 q 403 231 403 264 q 388 160 403 194 q 349 101 374 126 q 290 61 324 76 q 218 46 256 46 q 146 61 180 46 q 87 100 112 75 q 47 159 62 125 q 32 231 32 193 l 171 231 q 186 198 171 210 q 218 185 200 185 q 250 199 237 185 q 264 231 264 213 q 250 264 264 250 q 218 278 236 278 q 146 292 180 278 q 87 331 112 306 q 47 390 62 356 q 32 463 32 424 q 43 526 32 494 q 73 579 53 558 q 32 694 32 627 q 47 766 32 732 q 87 825 62 800 q 146 865 112 850 q 218 880 180 880 q 290 865 256 880 q 349 825 324 850 q 388 765 374 799 q 403 694 403 731 l 264 694 q 250 727 264 713 q 218 741 236 741 q 184 727 197 741 q 171 694 171 713 q 186 661 171 673 q 218 648 200 648 q 290 633 256 648 q 349 593 324 619 q 388 534 374 568 q 403 463 403 500 q 392 401 403 430 q 362 347 381 372 m 260 444 q 263 454 262 449 q 264 463 264 458 q 250 495 264 481 q 218 509 236 509 q 184 495 197 509 q 171 463 171 481 q 186 429 171 442 q 218 417 200 417 q 244 424 232 417 q 260 444 255 431 z "},"©":{"ha":894,"x_min":31,"x_max":864,"o":"m 373 536 q 343 463 343 506 q 352 419 343 438 q 376 386 361 399 q 410 365 392 372 q 447 358 429 358 q 520 389 490 358 l 619 291 q 539 238 583 256 q 447 219 494 219 q 347 241 392 219 q 270 296 302 262 q 221 374 238 331 q 204 463 204 418 q 225 565 204 520 q 282 642 247 610 q 361 689 318 673 q 447 706 404 706 q 539 688 494 706 q 619 634 584 669 l 520 536 q 447 567 488 567 q 408 559 427 567 q 373 536 389 552 m 742 757 q 833 620 803 696 q 864 463 864 544 q 826 288 864 366 q 729 157 789 211 q 595 75 669 104 q 447 46 520 46 q 273 83 350 46 q 142 180 196 120 q 59 314 88 240 q 31 463 31 388 q 68 637 31 560 q 164 768 105 714 q 298 851 224 822 q 447 880 372 880 q 604 849 528 880 q 742 757 681 819 m 705 358 q 720 410 715 383 q 725 463 725 436 q 700 579 725 528 q 635 667 675 631 q 546 722 595 703 q 447 741 496 741 q 328 715 380 741 q 241 649 276 689 q 188 559 206 608 q 169 463 169 509 q 194 348 169 399 q 258 260 219 296 q 347 205 297 224 q 447 185 396 185 q 527 197 488 185 q 600 231 566 209 q 661 286 634 254 q 705 358 688 318 z "},"«":{"ha":536,"x_min":28,"x_max":505,"o":"m 179 301 l 296 105 l 177 33 l 38 265 q 28 301 28 282 q 38 336 28 319 l 177 568 l 296 496 l 179 301 m 387 301 l 505 105 l 385 33 l 246 265 q 236 301 236 282 q 246 336 236 319 l 385 568 l 505 496 l 387 301 z "},"®":{"ha":894,"x_min":31,"x_max":864,"o":"m 377 585 q 462 663 409 634 q 578 693 515 693 l 578 554 q 537 545 556 554 q 504 523 518 537 q 482 489 490 508 q 474 449 474 470 l 474 224 l 335 224 l 335 449 q 377 585 335 525 m 742 757 q 833 620 803 696 q 864 463 864 544 q 826 288 864 366 q 729 157 789 211 q 595 75 669 104 q 447 46 520 46 q 273 83 350 46 q 142 180 196 120 q 59 314 88 240 q 31 463 31 388 q 68 637 31 560 q 164 768 105 714 q 298 851 224 822 q 447 880 372 880 q 604 849 528 880 q 742 757 681 819 m 705 358 q 720 410 715 383 q 725 463 725 436 q 700 579 725 528 q 635 667 675 631 q 546 722 595 703 q 447 741 496 741 q 328 715 380 741 q 241 649 276 689 q 188 559 206 608 q 169 463 169 509 q 194 348 169 399 q 258 260 219 296 q 347 205 297 224 q 447 185 396 185 q 527 197 488 185 q 600 231 566 209 q 661 286 634 254 q 705 358 688 318 z "},"°":{"ha":431,"x_min":31,"x_max":401,"o":"m 319 894 q 379 829 356 869 q 401 741 401 790 q 387 669 401 703 q 347 610 372 635 q 288 570 322 585 q 216 556 255 556 q 144 570 178 556 q 85 609 110 584 q 45 668 60 634 q 31 741 31 702 q 45 813 31 779 q 84 871 59 846 q 143 911 109 896 q 216 926 177 926 q 271 918 245 926 q 319 894 297 909 m 258 722 q 262 741 262 730 q 248 774 262 760 q 216 787 234 787 q 184 774 198 787 q 169 741 169 760 q 183 707 169 720 q 216 694 197 694 q 242 702 231 694 q 258 722 254 710 z "},"»":{"ha":535,"x_min":31,"x_max":507,"o":"m 498 336 q 507 301 507 320 q 498 265 507 281 l 359 33 l 240 105 l 357 301 l 240 496 l 359 568 l 498 336 m 290 336 q 299 301 299 320 q 290 265 299 281 l 151 33 l 31 105 l 149 301 l 31 496 l 151 568 l 290 336 z "},"¿":{"ha":564,"x_min":25,"x_max":539,"o":"m 256 579 q 277 628 256 607 q 326 648 297 648 q 375 628 355 648 q 395 579 395 607 q 375 529 395 549 q 326 509 355 509 q 277 529 297 509 q 256 579 256 549 m 389 -127 q 326 -139 357 -139 q 265 -127 294 -139 q 213 -94 236 -115 q 177 -43 191 -72 q 164 23 164 -13 q 177 87 164 57 q 213 138 191 117 q 264 173 235 160 q 326 185 294 185 q 375 206 355 185 q 395 255 395 226 l 395 463 l 256 463 l 256 316 q 164 277 206 305 q 90 210 121 249 q 42 123 59 171 q 25 23 25 75 q 49 -94 25 -39 q 113 -189 72 -148 q 208 -254 154 -231 q 326 -278 263 -278 q 444 -254 390 -278 q 539 -190 497 -231 l 441 -92 q 389 -127 418 -115 z "},"ß":{"ha":597,"x_min":36,"x_max":569,"o":"m 444 544 q 535 440 501 504 q 569 301 569 376 q 545 184 569 239 q 480 88 521 130 q 384 24 439 47 q 268 0 330 0 l 268 139 q 331 152 302 139 q 383 187 361 165 q 417 239 405 209 q 430 301 430 269 q 416 365 430 335 q 381 416 403 394 q 329 450 358 438 q 268 463 300 463 l 268 602 q 304 609 287 602 q 333 628 320 616 q 353 658 345 641 q 360 694 360 675 q 352 732 360 715 q 332 761 344 749 q 302 780 319 773 q 268 787 285 787 q 231 780 248 787 q 201 759 214 772 q 182 730 189 746 q 175 694 175 713 l 175 0 l 36 0 l 36 694 q 54 785 36 743 q 104 859 72 828 q 177 908 135 890 q 268 926 219 926 q 356 908 315 926 q 430 858 398 890 q 481 785 462 827 q 499 694 499 743 q 484 613 499 652 q 444 544 469 575 z "},"é":{"ha":569,"x_min":26,"x_max":540,"o":"m 225 629 l 201 766 l 429 806 l 453 669 l 225 629 m 266 451 q 216 418 239 439 q 181 370 194 397 l 396 370 l 396 231 l 181 231 q 241 163 200 187 q 327 139 282 139 q 387 150 357 139 q 441 186 417 162 l 540 88 q 440 22 495 44 q 327 0 384 0 q 200 27 256 0 q 105 98 144 55 q 46 194 67 141 q 26 301 26 248 q 52 426 26 370 q 122 520 79 481 q 219 581 165 559 q 327 602 272 602 q 440 580 385 602 q 540 514 495 557 l 441 415 q 388 451 418 439 q 327 463 357 463 q 266 451 297 463 z "},"ö":{"ha":659,"x_min":29,"x_max":631,"o":"m 168 718 q 188 767 168 746 q 237 787 208 787 q 287 767 267 787 q 306 718 306 746 q 287 668 306 688 q 237 648 267 648 q 188 668 208 648 q 168 718 168 688 m 353 718 q 373 767 353 746 q 422 787 394 787 q 472 767 452 787 q 492 718 492 746 q 472 668 492 688 q 422 648 452 648 q 373 668 394 648 q 353 718 353 688 m 498 550 q 419 588 462 574 q 330 602 377 602 q 212 578 267 602 q 117 513 157 554 q 52 417 76 471 q 29 301 29 362 q 52 184 29 239 q 117 88 76 130 q 212 24 157 47 q 330 0 267 0 q 446 23 392 0 q 542 87 501 46 q 607 183 583 128 q 631 301 631 238 q 594 444 631 380 q 498 550 558 509 m 479 238 q 420 166 460 193 q 330 139 380 139 q 267 151 296 139 q 215 186 237 164 q 180 238 193 208 q 168 301 168 268 q 180 363 168 333 q 214 415 193 393 q 266 450 236 437 q 330 463 295 463 q 394 450 364 463 q 445 415 423 437 q 479 363 467 393 q 492 301 492 334 q 479 238 492 269 z "},"ü":{"ha":528,"x_min":32,"x_max":495,"o":"m 356 602 l 356 231 q 349 195 356 212 q 329 165 342 178 q 300 146 317 153 q 264 139 283 139 q 229 146 245 139 q 199 165 212 153 q 179 195 186 178 q 171 231 171 212 l 171 602 l 32 602 l 32 231 q 50 140 32 182 q 100 67 69 98 q 173 18 131 36 q 264 0 215 0 q 354 18 312 0 q 428 68 396 36 q 477 141 459 99 q 495 231 495 183 l 495 602 l 356 602 m 102 718 q 122 767 102 746 q 171 787 142 787 q 220 767 200 787 q 241 718 241 746 q 220 668 241 688 q 171 648 200 648 q 122 668 142 648 q 102 718 102 688 m 287 718 q 307 767 287 746 q 356 787 327 787 q 406 767 385 787 q 426 718 426 746 q 406 668 426 688 q 356 648 385 648 q 307 668 327 648 q 287 718 287 688 z "},"ä":{"ha":529,"x_min":32,"x_max":495,"o":"m 102 718 q 122 767 102 746 q 171 787 142 787 q 220 767 200 787 q 241 718 241 746 q 220 668 241 688 q 171 648 200 648 q 122 668 142 648 q 102 718 102 688 m 287 718 q 307 767 287 746 q 356 787 327 787 q 406 767 385 787 q 426 718 426 746 q 406 668 426 688 q 356 648 385 648 q 307 668 327 648 q 287 718 287 688 m 394 562 q 332 591 366 581 q 264 602 299 602 q 173 583 215 602 q 99 533 131 565 q 50 460 68 502 q 32 370 32 418 l 32 0 l 171 0 l 171 231 l 356 231 l 356 0 l 495 0 l 495 370 q 467 480 495 430 q 394 562 439 531 m 171 370 q 178 406 171 389 q 198 435 185 422 q 227 456 210 448 q 264 463 244 463 q 299 456 281 463 q 328 437 316 449 q 349 407 341 424 q 356 370 356 391 l 171 370 z "},"c":{"ha":574,"x_min":30,"x_max":544,"o":"m 217 416 q 181 362 193 392 q 169 301 169 332 q 183 233 169 263 q 221 182 198 203 q 274 150 244 161 q 331 139 303 139 q 392 150 362 139 q 445 186 421 162 l 544 88 q 445 22 500 44 q 331 0 390 0 q 206 27 261 0 q 111 96 150 54 q 50 193 71 139 q 30 301 30 246 q 56 424 30 369 q 125 519 82 480 q 221 580 167 558 q 331 602 275 602 q 445 580 390 602 q 544 514 500 557 l 445 416 q 392 451 421 440 q 331 463 362 463 q 270 451 300 463 q 217 416 241 440 z "},"’":{"ha":193,"x_min":30,"x_max":169,"o":"m 50 813 q 99 833 72 833 q 148 812 128 833 q 169 763 169 791 q 148 715 169 734 l 50 625 l 50 715 q 30 763 30 734 q 35 789 30 776 q 50 813 40 803 z "},"”":{"ha":387,"x_min":33,"x_max":357,"o":"m 54 813 q 103 833 76 833 q 152 812 131 833 q 172 763 172 791 q 152 715 172 734 l 54 625 l 54 715 q 33 763 33 734 q 38 789 33 776 q 54 813 44 803 m 239 813 q 288 833 261 833 q 337 812 317 833 q 357 763 357 791 q 337 715 357 734 l 239 625 l 239 715 q 219 763 219 734 q 224 789 219 776 q 239 813 229 803 z "},"`":{"ha":428,"x_min":24,"x_max":403,"o":"m 79 920 l 403 781 l 348 654 l 24 793 l 79 920 z "},"A":{"ha":531,"x_min":34,"x_max":497,"o":"m 395 562 q 469 480 442 531 q 497 370 497 429 l 497 0 l 358 0 l 358 231 l 173 231 l 173 0 l 34 0 l 34 370 q 53 461 34 419 q 103 534 71 503 q 176 584 134 566 q 266 602 219 602 q 335 591 302 602 q 395 562 368 581 m 358 370 q 351 407 358 390 q 331 437 344 424 q 301 456 318 449 q 266 463 284 463 q 229 456 246 463 q 200 435 212 448 q 180 406 187 422 q 173 370 173 389 l 358 370 z "},"B":{"ha":661,"x_min":35,"x_max":637,"o":"m 504 550 q 601 444 565 508 q 637 301 637 380 q 613 183 637 238 q 548 88 589 129 q 452 24 507 47 q 336 0 397 0 l 335 0 q 219 24 273 0 q 123 88 164 47 q 59 183 82 129 q 35 301 35 238 l 35 926 l 174 926 l 174 555 q 250 589 207 577 q 336 602 292 602 q 426 588 383 602 q 504 550 469 574 m 485 238 q 498 301 498 269 q 485 365 498 335 q 449 416 471 394 q 398 450 427 438 q 336 463 369 463 q 272 450 302 463 q 221 415 243 437 q 187 364 199 394 q 174 301 174 334 q 187 236 174 266 q 222 185 200 206 q 274 151 244 163 q 336 139 303 139 q 426 167 386 139 q 485 238 467 194 z "},"C":{"ha":574,"x_min":30,"x_max":544,"o":"m 217 416 q 181 362 193 392 q 169 301 169 332 q 183 233 169 263 q 221 182 198 203 q 274 150 244 161 q 331 139 303 139 q 392 150 362 139 q 445 186 421 162 l 544 88 q 445 22 500 44 q 331 0 390 0 q 206 27 261 0 q 111 96 150 54 q 50 193 71 139 q 30 301 30 246 q 56 424 30 369 q 125 519 82 480 q 221 580 167 558 q 331 602 275 602 q 445 580 390 602 q 544 514 500 557 l 445 416 q 392 451 421 440 q 331 463 362 463 q 270 451 300 463 q 217 416 241 440 z "},"D":{"ha":661,"x_min":24,"x_max":626,"o":"m 487 926 l 626 926 l 626 301 q 602 182 626 237 q 537 87 578 127 q 441 23 495 46 q 325 0 386 0 q 209 24 264 0 q 113 88 154 47 q 48 183 72 129 q 24 301 24 238 q 48 418 24 363 q 113 514 71 473 q 208 578 154 555 q 325 602 263 602 q 411 589 369 602 q 487 555 452 577 l 487 926 m 474 238 q 487 301 487 269 q 475 363 487 334 q 440 415 462 393 q 389 450 419 437 q 325 463 359 463 q 261 450 291 463 q 210 415 231 437 q 175 363 188 393 q 163 301 163 333 q 176 236 163 266 q 212 185 190 206 q 263 151 234 164 q 325 139 293 139 q 416 167 376 139 q 474 238 456 194 z "},"E":{"ha":574,"x_min":30,"x_max":544,"o":"m 270 451 q 220 419 243 441 q 184 370 197 397 l 400 370 l 400 231 l 184 231 q 247 163 206 186 q 331 139 287 139 q 392 150 362 139 q 445 186 421 162 l 544 88 q 445 22 500 44 q 331 0 390 0 q 205 27 260 0 q 110 97 149 54 q 50 194 71 140 q 30 301 30 247 q 56 424 30 369 q 125 519 82 480 q 221 580 167 558 q 331 602 275 602 q 445 580 390 602 q 544 514 500 557 l 445 416 q 392 451 421 440 q 331 463 362 463 q 270 451 298 463 z "},"F":{"ha":416,"x_min":33,"x_max":392,"o":"m 221 904 q 335 926 277 926 q 392 920 364 926 l 366 784 q 335 787 350 787 q 268 773 298 787 q 217 736 238 759 q 184 684 195 713 q 172 625 172 656 l 172 370 l 311 370 l 311 231 l 172 231 l 172 0 l 33 0 l 33 625 q 47 714 33 671 q 86 794 61 757 q 145 858 111 830 q 221 904 180 887 z "},"G":{"ha":660,"x_min":25,"x_max":627,"o":"m 627 -46 q 603 -164 627 -109 q 538 -259 579 -219 q 442 -324 497 -300 q 326 -347 387 -347 l 326 -208 q 390 -195 360 -208 q 441 -159 419 -181 q 475 -108 463 -137 q 488 -46 488 -79 l 488 47 q 413 13 455 25 q 326 0 370 0 q 208 24 263 0 q 113 89 154 48 q 49 185 72 130 q 25 301 25 240 q 49 419 25 364 q 114 514 73 473 q 210 578 155 555 q 326 602 265 602 q 444 578 389 602 q 539 513 498 554 q 603 417 580 472 q 627 301 627 362 l 627 -46 m 475 238 q 488 301 488 269 q 475 365 488 335 q 439 416 461 394 q 388 450 417 438 q 326 463 358 463 q 262 450 292 463 q 211 415 232 437 q 176 363 189 393 q 164 301 164 333 q 177 236 164 266 q 213 185 191 206 q 264 151 235 164 q 326 139 294 139 q 417 167 377 139 q 475 238 456 194 z "},"H":{"ha":525,"x_min":37,"x_max":500,"o":"m 398 562 q 472 480 444 531 q 500 370 500 429 l 500 0 l 361 0 l 361 370 q 354 407 361 390 q 333 437 346 424 q 304 456 320 449 q 269 463 287 463 q 232 456 249 463 q 202 435 215 448 q 183 406 190 422 q 176 370 176 389 l 176 0 l 37 0 l 37 370 l 37 926 l 176 926 l 176 582 q 179 583 177 583 q 269 602 221 602 q 338 591 305 602 q 398 562 370 581 z "},"I":{"ha":214,"x_min":37,"x_max":176,"o":"m 37 602 l 176 602 l 176 0 l 37 0 l 37 602 z "},"J":{"ha":358,"x_min":24,"x_max":325,"o":"m 186 602 l 325 602 l 325 -46 q 301 -164 325 -109 q 236 -259 277 -219 q 140 -324 195 -300 q 24 -347 85 -347 l 24 -208 q 88 -195 58 -208 q 139 -159 118 -181 q 174 -108 161 -137 q 186 -46 186 -79 l 186 602 z "},"K":{"ha":444,"x_min":37,"x_max":407,"o":"m 356 364 q 298 301 331 329 q 378 199 349 259 q 407 69 407 139 l 407 0 l 269 0 l 269 69 q 243 158 269 119 q 176 216 217 197 l 176 0 l 37 0 l 37 602 l 176 602 l 176 386 q 243 446 218 407 q 269 532 269 484 l 269 602 l 407 602 l 407 532 q 394 443 407 485 q 356 364 380 400 z "},"L":{"ha":214,"x_min":37,"x_max":176,"o":"m 37 926 l 176 926 l 176 0 l 37 0 l 37 926 z "},"M":{"ha":857,"x_min":35,"x_max":822,"o":"m 719 562 q 794 480 767 531 q 822 370 822 430 l 822 0 l 683 0 l 683 370 q 656 436 681 408 q 591 463 631 463 q 555 456 571 463 q 525 437 538 449 q 506 407 513 424 q 498 370 498 390 l 498 0 l 359 0 l 359 370 q 332 436 357 408 q 267 463 306 463 q 231 456 247 463 q 201 437 214 449 q 181 407 189 424 q 174 370 174 390 l 174 0 l 35 0 l 35 370 q 53 461 35 419 q 102 534 71 503 q 175 584 133 566 q 267 602 218 602 q 355 584 314 602 q 429 536 396 566 q 501 584 460 566 q 591 602 543 602 q 659 591 626 602 q 719 562 693 581 z "},"N":{"ha":531,"x_min":34,"x_max":497,"o":"m 394 562 q 469 480 442 531 q 497 370 497 430 l 497 0 l 358 0 l 358 370 q 331 436 356 408 q 266 463 306 463 q 230 456 246 463 q 200 437 213 449 q 181 407 188 424 q 173 370 173 390 l 173 0 l 34 0 l 34 370 q 52 461 34 419 q 101 534 70 503 q 175 584 132 566 q 266 602 217 602 q 334 591 301 602 q 394 562 368 581 z "},"O":{"ha":663,"x_min":31,"x_max":632,"o":"m 500 550 q 596 444 559 508 q 632 301 632 380 q 608 183 632 238 q 544 88 584 129 q 448 24 503 47 q 331 0 393 0 q 215 24 269 0 q 119 88 160 47 q 54 183 78 129 q 31 301 31 238 q 55 419 31 365 q 120 515 79 474 q 216 579 161 556 q 331 602 270 602 q 421 588 379 602 q 500 550 464 574 m 481 238 q 494 301 494 269 q 480 365 494 335 q 444 416 467 394 q 393 450 422 438 q 331 463 364 463 q 269 450 298 463 q 217 416 239 438 q 182 364 194 394 q 169 301 169 334 q 182 238 169 268 q 216 187 194 208 q 268 152 238 165 q 331 139 297 139 q 422 166 381 139 q 481 238 462 194 z "},"P":{"ha":660,"x_min":34,"x_max":636,"o":"m 503 550 q 600 444 564 508 q 636 301 636 380 q 612 182 636 237 q 546 87 587 128 q 450 23 505 46 q 335 0 395 0 l 334 0 q 249 13 290 0 q 173 47 208 25 l 173 -278 l 34 -278 l 34 301 q 58 419 34 364 q 123 515 81 474 q 219 579 164 556 q 335 602 273 602 q 425 588 382 602 q 503 550 468 574 m 484 238 q 497 301 497 269 q 484 366 497 336 q 448 417 470 395 q 396 451 425 439 q 335 463 367 463 q 271 450 301 463 q 220 415 242 437 q 186 363 198 393 q 173 301 173 334 q 186 236 173 266 q 221 185 199 206 q 272 151 243 164 q 335 139 302 139 q 425 167 385 139 q 484 238 466 194 z "},"Q":{"ha":661,"x_min":24,"x_max":626,"o":"m 493 550 q 590 444 554 508 q 626 301 626 380 l 626 -278 l 487 -278 l 487 47 q 410 13 451 25 q 325 0 369 0 l 324 0 q 207 24 262 0 q 112 88 153 47 q 48 183 71 129 q 24 301 24 238 q 48 419 24 364 q 113 515 71 474 q 208 579 154 556 q 325 602 263 602 q 415 588 372 602 q 493 550 457 574 m 474 238 q 487 301 487 269 q 474 366 487 336 q 438 417 460 395 q 386 451 415 439 q 325 463 356 463 q 261 450 291 463 q 210 415 231 437 q 175 363 188 393 q 163 301 163 334 q 176 236 163 266 q 211 185 189 206 q 262 151 232 164 q 325 139 292 139 q 415 167 375 139 q 474 238 456 194 z "},"R":{"ha":356,"x_min":31,"x_max":331,"o":"m 81 469 q 189 566 123 531 q 331 602 255 602 l 331 463 q 268 450 297 463 q 216 415 238 437 q 182 363 194 393 q 169 301 169 334 l 169 0 l 31 0 l 31 301 q 44 391 31 348 q 81 469 57 433 z "},"S":{"ha":431,"x_min":31,"x_max":401,"o":"m 319 339 q 379 273 356 313 q 401 185 401 232 q 386 113 401 146 q 346 54 371 79 q 287 14 320 29 q 216 0 253 0 l 54 0 l 54 139 l 216 139 q 249 153 235 139 q 262 185 262 167 q 248 218 262 204 q 216 231 234 231 q 143 246 177 231 q 84 287 109 261 q 45 345 59 312 q 31 417 31 379 q 45 488 31 455 q 85 547 60 522 q 144 587 110 572 q 216 602 178 602 l 378 602 l 378 463 l 216 463 q 182 449 194 463 q 169 417 169 434 q 183 383 169 395 q 216 370 197 370 q 271 362 244 370 q 319 339 297 354 z "},"T":{"ha":470,"x_min":27,"x_max":444,"o":"m 27 602 l 444 602 l 444 463 l 305 463 l 305 0 l 166 0 l 166 463 l 27 463 l 27 602 z "},"U":{"ha":530,"x_min":33,"x_max":496,"o":"m 357 602 l 496 602 l 496 231 q 478 140 496 182 q 429 67 460 98 q 355 18 397 36 q 265 0 313 0 q 175 18 218 0 q 102 68 133 36 q 52 141 70 99 q 33 231 33 183 l 33 602 l 172 602 l 172 231 q 180 194 172 211 q 200 165 188 177 q 230 146 213 153 q 265 139 246 139 q 301 146 284 139 q 331 166 319 154 q 350 196 344 179 q 357 231 357 213 l 357 602 z "},"V":{"ha":644,"x_min":26,"x_max":619,"o":"m 489 620 l 619 570 l 437 98 q 422 67 431 84 q 399 35 413 50 q 366 10 385 20 q 322 0 347 0 q 280 9 298 0 q 248 31 262 18 q 224 63 234 45 q 207 98 214 81 l 26 570 l 156 620 l 322 187 l 489 620 z "},"W":{"ha":856,"x_min":34,"x_max":821,"o":"m 682 602 l 821 602 l 821 231 q 803 140 821 182 q 754 67 785 98 q 680 18 722 36 q 590 0 638 0 q 502 18 543 0 q 428 66 461 35 q 354 18 395 35 q 266 0 313 0 q 176 18 219 0 q 103 68 134 36 q 53 141 71 99 q 34 231 34 183 l 34 602 l 173 602 l 173 231 q 181 194 173 211 q 201 165 189 177 q 231 146 214 153 q 266 139 247 139 q 302 146 285 139 q 332 166 319 154 q 351 196 344 179 q 358 231 358 213 l 358 602 l 497 602 l 497 231 q 505 194 497 211 q 525 165 513 177 q 555 146 538 153 q 590 139 571 139 q 626 146 609 139 q 655 165 643 153 q 675 195 668 178 q 682 231 682 212 l 682 602 z "},"X":{"ha":531,"x_min":36,"x_max":499,"o":"m 268 494 q 369 572 309 543 q 499 602 430 602 l 499 463 q 436 450 466 463 q 384 415 406 437 q 350 363 362 393 q 337 301 337 333 q 350 237 337 267 q 385 186 363 207 q 437 151 407 164 q 499 139 467 139 l 499 0 q 369 30 429 0 q 268 108 309 59 q 166 29 226 58 q 36 0 106 0 l 36 139 q 99 151 69 139 q 151 186 129 164 q 186 238 173 208 q 198 301 198 268 q 186 363 198 333 q 152 415 173 393 q 100 450 131 437 q 36 463 70 463 l 36 602 q 166 572 106 602 q 268 494 227 543 z "},"Y":{"ha":524,"x_min":28,"x_max":491,"o":"m 352 602 l 491 602 l 491 -46 q 467 -165 491 -110 q 401 -261 443 -220 q 306 -324 360 -301 q 190 -347 251 -347 l 190 -208 q 253 -196 223 -208 q 305 -161 282 -183 q 339 -109 327 -139 q 352 -46 352 -80 l 352 19 q 350 19 351 19 q 259 0 307 0 q 170 18 212 0 q 96 68 128 36 q 46 141 65 99 q 28 231 28 183 l 28 602 l 167 602 l 167 231 q 175 194 167 211 q 195 165 182 177 q 224 146 207 153 q 259 139 241 139 q 295 146 279 139 q 325 165 312 153 q 344 195 337 178 q 352 231 352 212 l 352 602 z "},"Z":{"ha":411,"x_min":32,"x_max":379,"o":"m 181 144 q 179 141 180 142 q 178 139 178 141 l 182 139 l 368 139 l 368 0 l 182 0 q 119 10 147 0 q 72 38 92 20 q 43 79 53 56 q 32 127 32 102 q 42 177 32 153 q 67 223 51 202 l 231 458 q 233 461 232 460 q 234 463 233 461 l 229 463 l 44 463 l 44 602 l 229 602 q 292 591 264 602 q 339 563 319 581 q 369 523 358 546 q 379 475 379 500 q 370 424 379 448 q 345 379 361 400 l 181 144 z "},"Œ":{"ha":905,"x_min":31,"x_max":872,"o":"m 598 451 q 549 418 571 439 q 513 370 527 397 l 729 370 l 729 231 l 513 231 q 575 162 536 185 q 659 139 615 139 q 720 150 691 139 q 774 186 750 162 l 872 88 q 773 22 829 44 q 659 0 717 0 q 575 12 617 0 q 496 48 533 24 q 332 0 417 0 q 205 27 261 0 q 111 98 149 55 q 52 194 72 141 q 31 301 31 248 q 56 421 31 366 q 124 517 81 477 q 220 579 166 556 q 332 602 274 602 q 496 554 419 602 q 575 590 532 578 q 659 602 617 602 q 773 580 718 602 q 872 514 828 558 l 774 415 q 721 451 751 439 q 659 463 691 463 q 598 451 630 463 m 381 187 q 358 301 358 243 q 368 377 358 340 q 398 449 378 415 q 366 460 384 456 q 332 463 348 463 q 263 448 294 463 q 213 410 233 433 q 181 357 192 386 q 170 301 170 329 q 184 234 170 264 q 221 183 198 205 q 273 150 244 162 q 332 139 302 139 q 365 142 348 139 q 398 153 382 145 q 389 170 394 161 q 381 187 384 179 z "},"Ÿ":{"ha":520,"x_min":26,"x_max":489,"o":"m 350 231 q 343 195 350 212 q 323 165 335 178 q 294 146 310 153 q 257 139 277 139 q 222 146 239 139 q 193 165 206 153 q 173 194 181 177 q 165 231 165 211 l 165 602 l 26 602 l 26 231 q 44 141 26 183 q 94 68 63 99 q 168 18 126 36 q 257 0 210 0 q 348 19 306 0 q 350 19 349 19 l 350 -46 q 338 -109 350 -80 q 303 -161 325 -139 q 251 -196 281 -183 q 188 -208 221 -208 l 188 -347 q 304 -324 249 -347 q 400 -261 358 -301 q 465 -165 441 -220 q 489 -46 489 -110 l 489 602 l 350 602 l 350 231 m 95 718 q 115 767 95 746 q 165 787 135 787 q 214 767 194 787 q 234 718 234 746 q 214 668 234 688 q 165 648 194 648 q 115 668 135 648 q 95 718 95 688 m 281 718 q 300 767 281 746 q 350 787 320 787 q 399 767 379 787 q 419 718 419 746 q 399 668 419 688 q 350 648 379 648 q 300 668 320 648 q 281 718 281 688 z "},"±":{"ha":431,"x_min":30,"x_max":400,"o":"m 284 370 l 400 370 l 400 231 l 284 231 l 284 116 l 145 116 l 145 231 l 30 231 l 30 370 l 145 370 l 145 486 l 284 486 l 284 370 m 30 69 l 400 69 l 400 -69 l 30 -69 l 30 69 z "},"µ":{"ha":579,"x_min":32,"x_max":550,"o":"m 531 56 q 550 26 538 38 l 452 -72 q 403 1 419 -39 q 394 24 398 10 q 381 18 389 20 q 338 5 360 9 q 292 0 316 0 q 199 19 241 0 l 199 0 q 181 -90 199 -47 q 131 -164 164 -132 l 32 -66 q 53 -36 45 -55 q 60 0 60 -19 l 60 602 l 199 602 l 199 231 q 215 180 199 203 q 256 145 231 156 q 273 141 264 143 q 292 139 281 139 q 344 155 320 139 q 363 172 355 162 q 377 195 371 182 q 384 231 384 213 l 384 602 l 523 602 l 523 231 l 523 92 q 525 72 523 81 q 531 56 526 63 z "},"Ø":{"ha":657,"x_min":28,"x_max":630,"o":"m 497 550 q 594 444 558 508 q 630 301 630 379 q 607 187 630 240 q 546 93 585 133 q 456 28 507 53 q 346 1 405 4 l 337 -53 l 200 -29 l 209 25 q 135 71 169 43 q 78 135 102 99 q 41 213 54 170 q 28 301 28 255 q 50 414 28 361 q 111 508 72 468 q 201 573 150 548 q 311 601 253 598 l 320 655 l 457 631 l 448 577 q 473 565 461 571 q 497 550 485 558 m 286 457 q 238 435 259 450 q 200 400 216 420 q 175 353 184 379 q 167 301 167 328 q 185 226 167 259 q 235 169 203 193 l 286 457 m 478 238 q 491 301 491 269 q 473 376 491 343 q 422 433 455 409 l 371 144 q 435 179 406 154 q 478 238 463 204 z "},"æ":{"ha":905,"x_min":34,"x_max":872,"o":"m 598 451 q 548 419 571 441 q 513 370 525 397 l 729 370 l 729 231 l 513 231 q 575 163 533 186 q 659 139 616 139 q 720 150 690 139 q 774 186 750 162 l 872 88 q 773 22 828 44 q 659 0 718 0 q 575 12 617 0 q 497 47 533 23 l 497 0 l 358 0 l 358 231 l 173 231 l 173 0 l 34 0 l 34 370 q 53 461 34 419 q 103 534 71 503 q 176 584 134 566 q 266 602 219 602 q 368 578 321 602 q 447 514 415 555 q 545 580 490 558 q 659 602 601 602 q 773 580 718 602 q 872 514 828 557 l 774 416 q 720 451 750 440 q 659 463 690 463 q 628 460 644 463 q 598 451 613 457 m 358 370 q 351 407 358 390 q 331 437 344 424 q 301 456 318 449 q 266 463 284 463 q 229 456 246 463 q 200 435 212 448 q 180 406 187 422 q 173 370 173 389 l 358 370 z "},"ç":{"ha":567,"x_min":27,"x_max":541,"o":"m 213 416 q 177 362 189 392 q 166 301 166 331 q 181 231 166 262 q 219 181 195 201 q 271 150 243 160 q 328 139 300 139 q 389 150 359 139 q 443 186 419 162 l 541 88 q 453 27 501 49 q 355 1 406 6 q 358 -26 358 -10 q 351 -62 358 -44 q 331 -91 344 -79 q 301 -111 319 -104 q 266 -119 284 -119 q 200 -92 229 -119 l 233 -58 q 266 -72 247 -72 q 298 -58 284 -72 q 312 -26 312 -44 q 304 1 312 -12 q 188 35 239 6 q 100 105 136 63 q 46 197 65 146 q 27 301 27 248 q 54 427 27 371 q 125 521 81 482 q 221 581 168 560 q 328 602 275 602 q 441 580 386 602 q 541 514 496 557 l 443 416 q 389 451 419 440 q 328 463 359 463 q 213 416 263 463 z "},"÷":{"ha":511,"x_min":24,"x_max":487,"o":"m 325 139 q 305 90 325 110 q 256 69 284 69 q 206 90 227 69 q 186 139 186 110 q 206 188 186 168 q 256 208 227 208 q 305 188 284 208 q 325 139 325 168 m 325 463 q 305 414 325 434 q 256 394 284 394 q 206 414 227 394 q 186 463 186 434 q 206 512 186 492 q 256 532 227 532 q 305 512 284 532 q 325 463 325 492 m 24 370 l 24 231 l 487 231 l 487 370 l 24 370 z "},"ø":{"ha":657,"x_min":28,"x_max":630,"o":"m 497 550 q 594 444 558 508 q 630 301 630 379 q 607 187 630 240 q 546 93 585 133 q 456 28 507 53 q 346 1 405 4 l 337 -53 l 200 -29 l 209 25 q 135 71 169 43 q 78 135 102 99 q 41 213 54 170 q 28 301 28 255 q 50 414 28 361 q 111 508 72 468 q 201 573 150 548 q 311 601 253 598 l 320 655 l 457 631 l 448 577 q 473 565 461 571 q 497 550 485 558 m 286 457 q 238 435 259 450 q 200 400 216 420 q 175 353 184 379 q 167 301 167 328 q 185 226 167 259 q 235 169 203 193 l 286 457 m 478 238 q 491 301 491 269 q 473 376 491 343 q 422 433 455 409 l 371 144 q 435 179 406 154 q 478 238 463 204 z "},"v":{"ha":556,"x_min":27,"x_max":530,"o":"m 397 613 l 530 572 l 386 105 q 375 76 382 94 q 356 42 369 58 q 325 13 344 25 q 278 0 306 0 q 233 11 251 0 q 202 38 215 21 q 182 72 190 54 q 170 105 175 90 l 27 572 l 159 613 l 278 227 l 397 613 z "},"ñ":{"ha":528,"x_min":31,"x_max":494,"o":"m 103 602 q 87 659 87 628 q 96 704 87 682 q 121 741 106 725 q 158 767 137 757 q 203 776 179 776 q 260 761 232 776 q 303 718 287 745 q 312 709 306 713 q 323 706 317 706 q 346 730 346 711 q 344 741 346 735 l 423 787 q 439 730 439 761 q 430 684 439 706 q 405 647 420 663 q 368 622 389 631 q 323 613 346 613 q 266 628 294 613 q 223 671 239 643 q 214 680 219 676 q 203 683 209 683 q 180 659 180 678 q 182 648 180 654 l 103 602 m 393 562 q 467 480 439 531 q 494 370 494 429 l 494 0 l 356 0 l 356 370 q 348 407 356 390 q 328 437 341 424 q 298 456 315 449 q 263 463 281 463 q 226 456 244 463 q 197 435 209 448 q 177 406 184 422 q 170 370 170 389 l 170 0 l 31 0 l 31 370 q 50 461 31 419 q 100 534 69 503 q 174 584 131 566 q 263 602 216 602 q 332 591 299 602 q 393 562 365 581 z "},"˜":{"ha":414,"x_min":31,"x_max":383,"o":"m 47 602 q 31 659 31 628 q 41 704 31 682 q 66 741 50 725 q 102 767 81 757 q 147 776 123 776 q 204 761 177 776 q 247 718 231 745 q 256 709 251 713 q 268 706 261 706 q 291 730 291 711 q 288 741 291 735 l 368 787 q 383 730 383 761 q 374 684 383 706 q 349 647 365 663 q 312 622 333 631 q 268 613 291 613 q 211 628 238 613 q 168 671 183 643 q 159 680 164 676 q 147 683 154 683 q 124 659 124 678 q 127 648 124 654 l 47 602 z "},"´":{"ha":308,"x_min":29,"x_max":281,"o":"m 53 629 l 29 766 l 256 806 l 281 669 l 53 629 z "},"¨":{"ha":391,"x_min":33,"x_max":357,"o":"m 33 718 q 53 767 33 746 q 103 787 73 787 q 152 767 131 787 q 172 718 172 746 q 152 668 172 688 q 103 648 131 648 q 53 668 73 648 q 33 718 33 688 m 219 718 q 238 767 219 746 q 288 787 258 787 q 337 767 317 787 q 357 718 357 746 q 337 668 357 688 q 288 648 317 648 q 238 668 258 648 q 219 718 219 688 z "},"ˆ":{"ha":403,"x_min":27,"x_max":376,"o":"m 258 625 l 202 716 l 144 625 l 27 698 l 118 844 q 149 877 129 862 q 202 893 169 893 q 252 877 231 893 q 285 844 273 862 l 376 698 l 258 625 z "},"å":{"ha":522,"x_min":30,"x_max":493,"o":"m 261 625 q 225 632 242 625 q 195 651 207 639 q 175 681 182 664 q 169 718 169 698 q 175 754 169 737 q 195 783 182 770 q 225 803 207 795 q 261 810 242 810 q 297 803 281 810 q 326 783 314 795 q 346 754 339 770 q 354 718 354 737 q 346 681 354 698 q 326 651 339 664 q 297 632 314 639 q 261 625 281 625 m 229 750 q 215 718 215 736 q 229 685 215 699 q 261 671 243 671 q 294 685 280 671 q 307 718 307 699 q 294 750 307 736 q 261 764 280 764 q 229 750 243 764 m 391 562 q 465 480 437 531 q 493 370 493 429 l 493 0 l 354 0 l 354 231 l 169 231 l 169 0 l 30 0 l 30 370 q 48 461 30 419 q 98 534 67 503 q 172 584 130 566 q 261 602 214 602 q 330 591 297 602 q 391 562 363 581 m 354 370 q 346 407 354 390 q 326 437 339 424 q 296 456 313 449 q 261 463 280 463 q 225 456 242 463 q 195 435 207 448 q 175 406 182 422 q 169 370 169 389 l 354 370 z "},"à":{"ha":524,"x_min":31,"x_max":494,"o":"m 392 562 q 331 591 364 581 q 262 602 298 602 q 173 584 215 602 q 99 534 131 566 q 49 461 68 503 q 31 370 31 419 l 31 0 l 169 0 l 169 231 l 355 231 l 355 0 l 494 0 l 494 370 q 466 480 494 429 q 392 562 438 531 m 169 370 q 176 406 169 389 q 196 435 183 422 q 225 456 208 448 q 262 463 243 463 q 297 456 281 463 q 327 437 314 449 q 347 407 340 424 q 355 370 355 390 l 169 370 m 136 669 l 160 806 l 388 766 l 364 629 l 136 669 z "},"á":{"ha":523,"x_min":30,"x_max":493,"o":"m 391 562 q 465 480 437 531 q 493 370 493 429 l 493 0 l 354 0 l 354 231 l 169 231 l 169 0 l 30 0 l 30 370 q 48 461 30 419 q 98 534 67 503 q 172 584 130 566 q 261 602 214 602 q 330 591 297 602 q 391 562 363 581 m 354 370 q 346 407 354 390 q 326 437 339 424 q 296 456 313 449 q 261 463 280 463 q 225 456 242 463 q 195 435 207 448 q 175 406 182 422 q 169 370 169 389 l 354 370 m 159 629 l 135 766 l 363 806 l 387 669 l 159 629 z "},"â":{"ha":522,"x_min":30,"x_max":493,"o":"m 391 562 q 330 591 363 581 q 261 602 297 602 q 172 584 214 602 q 98 534 130 566 q 48 461 67 503 q 30 370 30 419 l 30 0 l 169 0 l 169 231 l 354 231 l 354 0 l 493 0 l 493 370 q 465 480 493 429 q 391 562 437 531 m 169 370 q 175 406 169 389 q 195 435 182 422 q 225 456 207 448 q 261 463 242 463 q 296 456 280 463 q 326 437 313 449 q 346 407 339 424 q 354 370 354 390 l 169 370 m 318 625 l 261 716 l 204 625 l 86 698 l 177 844 q 208 877 188 862 q 261 893 229 893 q 312 877 291 893 q 344 844 332 862 l 435 698 l 318 625 z "},"ã":{"ha":528,"x_min":31,"x_max":494,"o":"m 393 562 q 467 480 439 531 q 494 370 494 429 l 494 0 l 356 0 l 356 231 l 170 231 l 170 0 l 31 0 l 31 370 q 50 461 31 419 q 100 534 69 503 q 174 584 131 566 q 263 602 216 602 q 332 591 299 602 q 393 562 365 581 m 356 370 q 348 407 356 390 q 328 437 341 424 q 298 456 315 449 q 263 463 281 463 q 226 456 244 463 q 197 435 209 448 q 177 406 184 422 q 170 370 170 389 l 356 370 m 103 602 q 87 659 87 628 q 96 704 87 682 q 121 741 106 725 q 158 767 137 757 q 203 776 179 776 q 260 761 232 776 q 303 718 287 745 q 312 709 306 713 q 323 706 317 706 q 346 730 346 711 q 344 741 346 735 l 423 787 q 439 730 439 761 q 430 684 439 706 q 405 647 420 663 q 368 622 389 631 q 323 613 346 613 q 266 628 294 613 q 223 671 239 643 q 214 680 219 676 q 203 683 209 683 q 180 659 180 678 q 182 648 180 654 l 103 602 z "},"è":{"ha":568,"x_min":27,"x_max":541,"o":"m 268 451 q 328 463 295 463 q 389 451 359 463 q 443 416 419 440 l 541 514 q 442 580 497 557 q 328 602 387 602 q 218 580 272 602 q 122 519 164 558 q 53 424 80 480 q 27 301 27 369 q 48 194 27 247 q 107 97 69 140 q 202 27 146 54 q 328 0 257 0 q 442 22 387 0 q 541 88 497 44 l 443 186 q 389 150 419 162 q 328 139 359 139 q 244 163 284 139 q 181 231 204 186 l 397 231 l 397 370 l 181 370 q 217 419 194 397 q 268 451 240 441 m 158 669 l 182 806 l 410 766 l 386 629 l 158 669 z "},"ê":{"ha":568,"x_min":27,"x_max":541,"o":"m 268 451 q 328 463 295 463 q 389 451 359 463 q 443 416 419 440 l 541 514 q 442 580 497 557 q 328 602 387 602 q 218 580 272 602 q 122 519 164 558 q 53 424 80 480 q 27 301 27 369 q 48 194 27 247 q 107 97 69 140 q 202 27 146 54 q 328 0 257 0 q 442 22 387 0 q 541 88 497 44 l 443 186 q 389 150 419 162 q 328 139 359 139 q 244 163 284 139 q 181 231 204 186 l 397 231 l 397 370 l 181 370 q 217 419 194 397 q 268 451 240 441 m 350 625 l 294 716 l 236 625 l 119 698 l 209 844 q 241 877 220 862 q 294 893 261 893 q 344 877 323 893 q 377 844 365 862 l 468 698 l 350 625 z "},"ë":{"ha":569,"x_min":28,"x_max":542,"o":"m 269 451 q 329 463 296 463 q 390 451 360 463 q 444 416 419 440 l 542 514 q 443 580 498 557 q 329 602 388 602 q 219 580 273 602 q 123 519 165 558 q 54 424 81 480 q 28 301 28 369 q 49 194 28 247 q 108 97 69 140 q 203 27 147 54 q 329 0 258 0 q 443 22 388 0 q 542 88 498 44 l 444 186 q 390 150 419 162 q 329 139 360 139 q 245 163 285 139 q 182 231 205 186 l 398 231 l 398 370 l 182 370 q 218 419 195 397 q 269 451 241 441 m 122 718 q 142 767 122 746 q 192 787 162 787 q 241 767 220 787 q 261 718 261 746 q 241 668 261 688 q 192 648 220 648 q 142 668 162 648 q 122 718 122 688 m 307 718 q 327 767 307 746 q 377 787 347 787 q 426 767 406 787 q 446 718 446 746 q 426 668 446 688 q 377 648 406 648 q 327 668 347 648 q 307 718 307 688 z "},"ì":{"ha":306,"x_min":28,"x_max":280,"o":"m 84 0 l 223 0 l 223 602 l 84 602 l 84 0 m 28 669 l 52 806 l 280 766 l 256 629 l 28 669 z "},"í":{"ha":306,"x_min":27,"x_max":279,"o":"m 83 602 l 222 602 l 222 0 l 83 0 l 83 602 m 51 629 l 27 766 l 255 806 l 279 669 l 51 629 z "},"î":{"ha":399,"x_min":25,"x_max":374,"o":"m 130 0 l 269 0 l 269 602 l 130 602 l 130 0 m 256 625 l 200 716 l 143 625 l 25 698 l 116 844 q 147 877 127 862 q 200 893 168 893 q 250 877 230 893 q 283 844 271 862 l 374 698 l 256 625 z "},"ï":{"ha":378,"x_min":27,"x_max":351,"o":"m 119 0 l 258 0 l 258 602 l 119 602 l 119 0 m 27 718 q 47 767 27 746 q 96 787 67 787 q 145 767 125 787 q 166 718 166 746 q 145 668 166 688 q 96 648 125 648 q 47 668 67 648 q 27 718 27 688 m 212 718 q 232 767 212 746 q 281 787 252 787 q 331 767 310 787 q 351 718 351 746 q 331 668 351 688 q 281 648 310 648 q 232 668 252 648 q 212 718 212 688 z "},"ò":{"ha":656,"x_min":27,"x_max":629,"o":"m 496 550 q 418 588 460 574 q 328 602 375 602 q 212 579 267 602 q 116 515 157 556 q 51 419 75 474 q 27 301 27 365 q 50 183 27 238 q 115 88 74 129 q 211 24 156 47 q 328 0 266 0 q 444 24 389 0 q 540 88 499 47 q 605 183 581 129 q 629 301 629 238 q 592 444 629 380 q 496 550 556 508 m 477 238 q 418 166 458 194 q 328 139 378 139 q 264 152 294 139 q 213 187 234 165 q 178 238 191 208 q 166 301 166 268 q 178 364 166 334 q 213 416 191 394 q 265 450 235 438 q 328 463 294 463 q 389 450 360 463 q 441 416 419 438 q 476 365 463 394 q 490 301 490 335 q 477 238 490 269 m 202 669 l 226 806 l 454 766 l 430 629 l 202 669 z "},"ó":{"ha":656,"x_min":27,"x_max":629,"o":"m 496 550 q 592 444 556 508 q 629 301 629 380 q 605 183 629 238 q 540 88 581 129 q 444 24 499 47 q 328 0 389 0 q 211 24 266 0 q 115 88 156 47 q 50 183 74 129 q 27 301 27 238 q 51 419 27 365 q 116 515 75 474 q 212 579 157 556 q 328 602 267 602 q 418 588 375 602 q 496 550 460 574 m 477 238 q 490 301 490 269 q 476 365 490 335 q 441 416 463 394 q 389 450 419 438 q 328 463 360 463 q 265 450 294 463 q 213 416 235 438 q 178 364 191 394 q 166 301 166 334 q 178 238 166 268 q 213 187 191 208 q 264 152 234 165 q 328 139 294 139 q 418 166 378 139 q 477 238 458 194 m 226 629 l 202 766 l 430 806 l 454 669 l 226 629 z "},"ô":{"ha":656,"x_min":27,"x_max":629,"o":"m 496 550 q 418 588 460 574 q 328 602 375 602 q 212 579 267 602 q 116 515 157 556 q 51 419 75 474 q 27 301 27 365 q 50 183 27 238 q 115 88 74 129 q 211 24 156 47 q 328 0 266 0 q 444 24 389 0 q 540 88 499 47 q 605 183 581 129 q 629 301 629 238 q 592 444 629 380 q 496 550 556 508 m 477 238 q 418 166 458 194 q 328 139 378 139 q 264 152 294 139 q 213 187 234 165 q 178 238 191 208 q 166 301 166 268 q 178 364 166 334 q 213 416 191 394 q 265 450 235 438 q 328 463 294 463 q 389 450 360 463 q 441 416 419 438 q 476 365 463 394 q 490 301 490 335 q 477 238 490 269 m 384 625 l 328 716 l 270 625 l 153 698 l 244 844 q 275 877 255 862 q 328 893 295 893 q 378 877 357 893 q 411 844 399 862 l 502 698 l 384 625 z "},"õ":{"ha":658,"x_min":28,"x_max":630,"o":"m 497 550 q 593 444 556 508 q 630 301 630 380 q 606 183 630 238 q 541 88 581 129 q 445 24 500 47 q 329 0 390 0 q 212 24 267 0 q 116 88 157 47 q 51 183 75 129 q 28 301 28 238 q 52 419 28 365 q 117 515 76 474 q 213 579 158 556 q 329 602 268 602 q 419 588 376 602 q 497 550 461 574 m 478 238 q 491 301 491 269 q 477 365 491 335 q 442 416 464 394 q 390 450 419 438 q 329 463 361 463 q 266 450 295 463 q 214 416 236 438 q 179 364 192 394 q 167 301 167 334 q 179 238 167 268 q 213 187 192 208 q 265 152 235 165 q 329 139 294 139 q 419 166 379 139 q 478 238 459 194 m 169 602 q 153 659 153 628 q 162 704 153 682 q 187 741 171 725 q 224 767 203 757 q 269 776 244 776 q 325 761 298 776 q 369 718 353 745 q 377 709 372 713 q 389 706 382 706 q 412 730 412 711 q 409 741 412 735 l 489 787 q 505 730 505 761 q 495 684 505 706 q 470 647 486 663 q 433 622 455 631 q 389 613 412 613 q 332 628 359 613 q 289 671 305 643 q 280 680 285 676 q 269 683 275 683 q 245 659 245 678 q 248 648 245 654 l 169 602 z "},"ù":{"ha":523,"x_min":31,"x_max":494,"o":"m 355 231 q 348 196 355 213 q 328 166 341 179 q 299 146 316 154 q 262 139 281 139 q 227 146 244 139 q 198 165 210 153 q 177 194 185 177 q 169 231 169 211 l 169 602 l 31 602 l 31 231 q 49 141 31 183 q 99 68 68 99 q 173 18 131 36 q 262 0 215 0 q 352 18 310 0 q 426 67 394 36 q 475 140 457 98 q 494 231 494 182 l 494 602 l 355 602 l 355 231 m 136 669 l 160 806 l 388 766 l 364 629 l 136 669 z "},"ú":{"ha":523,"x_min":30,"x_max":493,"o":"m 354 602 l 493 602 l 493 231 q 475 140 493 182 q 425 67 456 98 q 351 18 394 36 q 261 0 309 0 q 172 18 214 0 q 98 68 130 36 q 48 141 67 99 q 30 231 30 183 l 30 602 l 169 602 l 169 231 q 176 194 169 211 q 197 165 184 177 q 226 146 209 153 q 261 139 243 139 q 298 146 281 139 q 327 166 315 154 q 347 196 340 179 q 354 231 354 213 l 354 602 m 159 629 l 135 766 l 363 806 l 387 669 l 159 629 z "},"û":{"ha":522,"x_min":30,"x_max":493,"o":"m 354 231 q 347 196 354 213 q 327 166 340 179 q 298 146 315 154 q 261 139 281 139 q 226 146 243 139 q 197 165 209 153 q 176 194 184 177 q 169 231 169 211 l 169 602 l 30 602 l 30 231 q 48 141 30 183 q 98 68 67 99 q 172 18 130 36 q 261 0 214 0 q 351 18 309 0 q 425 67 394 36 q 475 140 456 98 q 493 231 493 182 l 493 602 l 354 602 l 354 231 m 318 625 l 261 716 l 204 625 l 86 698 l 177 844 q 208 877 188 862 q 261 893 229 893 q 312 877 291 893 q 344 844 332 862 l 435 698 l 318 625 z "},"ÿ":{"ha":520,"x_min":26,"x_max":489,"o":"m 350 231 q 343 195 350 212 q 323 165 335 178 q 294 146 310 153 q 257 139 277 139 q 222 146 239 139 q 193 165 206 153 q 173 194 181 177 q 165 231 165 211 l 165 602 l 26 602 l 26 231 q 44 141 26 183 q 94 68 63 99 q 168 18 126 36 q 257 0 210 0 q 348 19 306 0 q 350 19 349 19 l 350 -46 q 338 -109 350 -80 q 303 -161 325 -139 q 251 -196 281 -183 q 188 -208 221 -208 l 188 -347 q 304 -324 249 -347 q 400 -261 358 -301 q 465 -165 441 -220 q 489 -46 489 -110 l 489 602 l 350 602 l 350 231 m 95 718 q 115 767 95 746 q 165 787 135 787 q 214 767 194 787 q 234 718 234 746 q 214 668 234 688 q 165 648 194 648 q 115 668 135 648 q 95 718 95 688 m 281 718 q 300 767 281 746 q 350 787 320 787 q 399 767 379 787 q 419 718 419 746 q 399 668 419 688 q 350 648 379 648 q 300 668 320 648 q 281 718 281 688 z "},"À":{"ha":524,"x_min":31,"x_max":494,"o":"m 392 562 q 331 591 364 581 q 262 602 298 602 q 173 584 215 602 q 99 534 131 566 q 49 461 68 503 q 31 370 31 419 l 31 0 l 169 0 l 169 231 l 355 231 l 355 0 l 494 0 l 494 370 q 466 480 494 429 q 392 562 438 531 m 169 370 q 176 406 169 389 q 196 435 183 422 q 225 456 208 448 q 262 463 243 463 q 297 456 281 463 q 327 437 314 449 q 347 407 340 424 q 355 370 355 390 l 169 370 m 136 669 l 160 806 l 388 766 l 364 629 l 136 669 z "},"Á":{"ha":523,"x_min":30,"x_max":493,"o":"m 391 562 q 465 480 437 531 q 493 370 493 429 l 493 0 l 354 0 l 354 231 l 169 231 l 169 0 l 30 0 l 30 370 q 48 461 30 419 q 98 534 67 503 q 172 584 130 566 q 261 602 214 602 q 330 591 297 602 q 391 562 363 581 m 354 370 q 346 407 354 390 q 326 437 339 424 q 296 456 313 449 q 261 463 280 463 q 225 456 242 463 q 195 435 207 448 q 175 406 182 422 q 169 370 169 389 l 354 370 m 159 629 l 135 766 l 363 806 l 387 669 l 159 629 z "},"Â":{"ha":522,"x_min":30,"x_max":493,"o":"m 391 562 q 330 591 363 581 q 261 602 297 602 q 172 584 214 602 q 98 534 130 566 q 48 461 67 503 q 30 370 30 419 l 30 0 l 169 0 l 169 231 l 354 231 l 354 0 l 493 0 l 493 370 q 465 480 493 429 q 391 562 437 531 m 169 370 q 175 406 169 389 q 195 435 182 422 q 225 456 207 448 q 261 463 242 463 q 296 456 280 463 q 326 437 313 449 q 346 407 339 424 q 354 370 354 390 l 169 370 m 318 625 l 261 716 l 204 625 l 86 698 l 177 844 q 208 877 188 862 q 261 893 229 893 q 312 877 291 893 q 344 844 332 862 l 435 698 l 318 625 z "},"Ã":{"ha":528,"x_min":31,"x_max":494,"o":"m 393 562 q 467 480 439 531 q 494 370 494 429 l 494 0 l 356 0 l 356 231 l 170 231 l 170 0 l 31 0 l 31 370 q 50 461 31 419 q 100 534 69 503 q 174 584 131 566 q 263 602 216 602 q 332 591 299 602 q 393 562 365 581 m 356 370 q 348 407 356 390 q 328 437 341 424 q 298 456 315 449 q 263 463 281 463 q 226 456 244 463 q 197 435 209 448 q 177 406 184 422 q 170 370 170 389 l 356 370 m 103 602 q 87 659 87 628 q 96 704 87 682 q 121 741 106 725 q 158 767 137 757 q 203 776 179 776 q 260 761 232 776 q 303 718 287 745 q 312 709 306 713 q 323 706 317 706 q 346 730 346 711 q 344 741 346 735 l 423 787 q 439 730 439 761 q 430 684 439 706 q 405 647 420 663 q 368 622 389 631 q 323 613 346 613 q 266 628 294 613 q 223 671 239 643 q 214 680 219 676 q 203 683 209 683 q 180 659 180 678 q 182 648 180 654 l 103 602 z "},"Ä":{"ha":528,"x_min":32,"x_max":495,"o":"m 102 718 q 122 767 102 746 q 171 787 142 787 q 220 767 200 787 q 241 718 241 746 q 220 668 241 688 q 171 648 200 648 q 122 668 142 648 q 102 718 102 688 m 287 718 q 307 767 287 746 q 356 787 327 787 q 406 767 385 787 q 426 718 426 746 q 406 668 426 688 q 356 648 385 648 q 307 668 327 648 q 287 718 287 688 m 394 562 q 332 591 366 581 q 264 602 299 602 q 173 583 215 602 q 99 533 131 565 q 50 460 68 502 q 32 370 32 418 l 32 0 l 171 0 l 171 231 l 356 231 l 356 0 l 495 0 l 495 370 q 467 480 495 430 q 394 562 439 531 m 171 370 q 178 406 171 389 q 198 435 185 422 q 227 456 210 448 q 264 463 244 463 q 299 456 281 463 q 328 437 316 449 q 349 407 341 424 q 356 370 356 391 l 171 370 z "},"Å":{"ha":522,"x_min":30,"x_max":493,"o":"m 261 625 q 225 632 242 625 q 195 651 207 639 q 175 681 182 664 q 169 718 169 698 q 175 754 169 737 q 195 783 182 770 q 225 803 207 795 q 261 810 242 810 q 297 803 281 810 q 326 783 314 795 q 346 754 339 770 q 354 718 354 737 q 346 681 354 698 q 326 651 339 664 q 297 632 314 639 q 261 625 281 625 m 229 750 q 215 718 215 736 q 229 685 215 699 q 261 671 243 671 q 294 685 280 671 q 307 718 307 699 q 294 750 307 736 q 261 764 280 764 q 229 750 243 764 m 391 562 q 465 480 437 531 q 493 370 493 429 l 493 0 l 354 0 l 354 231 l 169 231 l 169 0 l 30 0 l 30 370 q 48 461 30 419 q 98 534 67 503 q 172 584 130 566 q 261 602 214 602 q 330 591 297 602 q 391 562 363 581 m 354 370 q 346 407 354 390 q 326 437 339 424 q 296 456 313 449 q 261 463 280 463 q 225 456 242 463 q 195 435 207 448 q 175 406 182 422 q 169 370 169 389 l 354 370 z "},"Æ":{"ha":905,"x_min":34,"x_max":872,"o":"m 598 451 q 548 419 571 441 q 513 370 525 397 l 729 370 l 729 231 l 513 231 q 575 163 533 186 q 659 139 616 139 q 720 150 690 139 q 774 186 750 162 l 872 88 q 773 22 828 44 q 659 0 718 0 q 575 12 617 0 q 497 47 533 23 l 497 0 l 358 0 l 358 231 l 173 231 l 173 0 l 34 0 l 34 370 q 53 461 34 419 q 103 534 71 503 q 176 584 134 566 q 266 602 219 602 q 368 578 321 602 q 447 514 415 555 q 545 580 490 558 q 659 602 601 602 q 773 580 718 602 q 872 514 828 557 l 774 416 q 720 451 750 440 q 659 463 690 463 q 628 460 644 463 q 598 451 613 457 m 358 370 q 351 407 358 390 q 331 437 344 424 q 301 456 318 449 q 266 463 284 463 q 229 456 246 463 q 200 435 212 448 q 180 406 187 422 q 173 370 173 389 l 358 370 z "},"Ç":{"ha":567,"x_min":27,"x_max":541,"o":"m 213 416 q 177 362 189 392 q 166 301 166 331 q 181 231 166 262 q 219 181 195 201 q 271 150 243 160 q 328 139 300 139 q 389 150 359 139 q 443 186 419 162 l 541 88 q 453 27 501 49 q 355 1 406 6 q 358 -26 358 -10 q 351 -62 358 -44 q 331 -91 344 -79 q 301 -111 319 -104 q 266 -119 284 -119 q 200 -92 229 -119 l 233 -58 q 266 -72 247 -72 q 298 -58 284 -72 q 312 -26 312 -44 q 304 1 312 -12 q 188 35 239 6 q 100 105 136 63 q 46 197 65 146 q 27 301 27 248 q 54 427 27 371 q 125 521 81 482 q 221 581 168 560 q 328 602 275 602 q 441 580 386 602 q 541 514 496 557 l 443 416 q 389 451 419 440 q 328 463 359 463 q 213 416 263 463 z "},"È":{"ha":568,"x_min":27,"x_max":541,"o":"m 268 451 q 328 463 295 463 q 389 451 359 463 q 443 416 419 440 l 541 514 q 442 580 497 557 q 328 602 387 602 q 218 580 272 602 q 122 519 164 558 q 53 424 80 480 q 27 301 27 369 q 48 194 27 247 q 107 97 69 140 q 202 27 146 54 q 328 0 257 0 q 442 22 387 0 q 541 88 497 44 l 443 186 q 389 150 419 162 q 328 139 359 139 q 244 163 284 139 q 181 231 204 186 l 397 231 l 397 370 l 181 370 q 217 419 194 397 q 268 451 240 441 m 158 669 l 182 806 l 410 766 l 386 629 l 158 669 z "},"É":{"ha":569,"x_min":26,"x_max":540,"o":"m 225 629 l 201 766 l 429 806 l 453 669 l 225 629 m 266 451 q 216 418 239 439 q 181 370 194 397 l 396 370 l 396 231 l 181 231 q 241 163 200 187 q 327 139 282 139 q 387 150 357 139 q 441 186 417 162 l 540 88 q 440 22 495 44 q 327 0 384 0 q 200 27 256 0 q 105 98 144 55 q 46 194 67 141 q 26 301 26 248 q 52 426 26 370 q 122 520 79 481 q 219 581 165 559 q 327 602 272 602 q 440 580 385 602 q 540 514 495 557 l 441 415 q 388 451 418 439 q 327 463 357 463 q 266 451 297 463 z "},"Ê":{"ha":568,"x_min":27,"x_max":541,"o":"m 268 451 q 328 463 295 463 q 389 451 359 463 q 443 416 419 440 l 541 514 q 442 580 497 557 q 328 602 387 602 q 218 580 272 602 q 122 519 164 558 q 53 424 80 480 q 27 301 27 369 q 48 194 27 247 q 107 97 69 140 q 202 27 146 54 q 328 0 257 0 q 442 22 387 0 q 541 88 497 44 l 443 186 q 389 150 419 162 q 328 139 359 139 q 244 163 284 139 q 181 231 204 186 l 397 231 l 397 370 l 181 370 q 217 419 194 397 q 268 451 240 441 m 350 625 l 294 716 l 236 625 l 119 698 l 209 844 q 241 877 220 862 q 294 893 261 893 q 344 877 323 893 q 377 844 365 862 l 468 698 l 350 625 z "},"Ë":{"ha":569,"x_min":28,"x_max":542,"o":"m 269 451 q 329 463 296 463 q 390 451 360 463 q 444 416 419 440 l 542 514 q 443 580 498 557 q 329 602 388 602 q 219 580 273 602 q 123 519 165 558 q 54 424 81 480 q 28 301 28 369 q 49 194 28 247 q 108 97 69 140 q 203 27 147 54 q 329 0 258 0 q 443 22 388 0 q 542 88 498 44 l 444 186 q 390 150 419 162 q 329 139 360 139 q 245 163 285 139 q 182 231 205 186 l 398 231 l 398 370 l 182 370 q 218 419 195 397 q 269 451 241 441 m 122 718 q 142 767 122 746 q 192 787 162 787 q 241 767 220 787 q 261 718 261 746 q 241 668 261 688 q 192 648 220 648 q 142 668 162 648 q 122 718 122 688 m 307 718 q 327 767 307 746 q 377 787 347 787 q 426 767 406 787 q 446 718 446 746 q 426 668 446 688 q 377 648 406 648 q 327 668 347 648 q 307 718 307 688 z "},"Ì":{"ha":306,"x_min":28,"x_max":280,"o":"m 84 0 l 223 0 l 223 602 l 84 602 l 84 0 m 28 669 l 52 806 l 280 766 l 256 629 l 28 669 z "},"Í":{"ha":306,"x_min":27,"x_max":279,"o":"m 83 602 l 222 602 l 222 0 l 83 0 l 83 602 m 51 629 l 27 766 l 255 806 l 279 669 l 51 629 z "},"Î":{"ha":399,"x_min":25,"x_max":374,"o":"m 130 0 l 269 0 l 269 602 l 130 602 l 130 0 m 256 625 l 200 716 l 143 625 l 25 698 l 116 844 q 147 877 127 862 q 200 893 168 893 q 250 877 230 893 q 283 844 271 862 l 374 698 l 256 625 z "},"Ï":{"ha":378,"x_min":27,"x_max":351,"o":"m 119 0 l 258 0 l 258 602 l 119 602 l 119 0 m 27 718 q 47 767 27 746 q 96 787 67 787 q 145 767 125 787 q 166 718 166 746 q 145 668 166 688 q 96 648 125 648 q 47 668 67 648 q 27 718 27 688 m 212 718 q 232 767 212 746 q 281 787 252 787 q 331 767 310 787 q 351 718 351 746 q 331 668 351 688 q 281 648 310 648 q 232 668 252 648 q 212 718 212 688 z "},"Ñ":{"ha":528,"x_min":31,"x_max":494,"o":"m 103 602 q 87 659 87 628 q 96 704 87 682 q 121 741 106 725 q 158 767 137 757 q 203 776 179 776 q 260 761 232 776 q 303 718 287 745 q 312 709 306 713 q 323 706 317 706 q 346 730 346 711 q 344 741 346 735 l 423 787 q 439 730 439 761 q 430 684 439 706 q 405 647 420 663 q 368 622 389 631 q 323 613 346 613 q 266 628 294 613 q 223 671 239 643 q 214 680 219 676 q 203 683 209 683 q 180 659 180 678 q 182 648 180 654 l 103 602 m 393 562 q 467 480 439 531 q 494 370 494 429 l 494 0 l 356 0 l 356 370 q 348 407 356 390 q 328 437 341 424 q 298 456 315 449 q 263 463 281 463 q 226 456 244 463 q 197 435 209 448 q 177 406 184 422 q 170 370 170 389 l 170 0 l 31 0 l 31 370 q 50 461 31 419 q 100 534 69 503 q 174 584 131 566 q 263 602 216 602 q 332 591 299 602 q 393 562 365 581 z "},"Ò":{"ha":656,"x_min":27,"x_max":629,"o":"m 496 550 q 418 588 460 574 q 328 602 375 602 q 212 579 267 602 q 116 515 157 556 q 51 419 75 474 q 27 301 27 365 q 50 183 27 238 q 115 88 74 129 q 211 24 156 47 q 328 0 266 0 q 444 24 389 0 q 540 88 499 47 q 605 183 581 129 q 629 301 629 238 q 592 444 629 380 q 496 550 556 508 m 477 238 q 418 166 458 194 q 328 139 378 139 q 264 152 294 139 q 213 187 234 165 q 178 238 191 208 q 166 301 166 268 q 178 364 166 334 q 213 416 191 394 q 265 450 235 438 q 328 463 294 463 q 389 450 360 463 q 441 416 419 438 q 476 365 463 394 q 490 301 490 335 q 477 238 490 269 m 202 669 l 226 806 l 454 766 l 430 629 l 202 669 z "},"Ó":{"ha":656,"x_min":27,"x_max":629,"o":"m 496 550 q 592 444 556 508 q 629 301 629 380 q 605 183 629 238 q 540 88 581 129 q 444 24 499 47 q 328 0 389 0 q 211 24 266 0 q 115 88 156 47 q 50 183 74 129 q 27 301 27 238 q 51 419 27 365 q 116 515 75 474 q 212 579 157 556 q 328 602 267 602 q 418 588 375 602 q 496 550 460 574 m 477 238 q 490 301 490 269 q 476 365 490 335 q 441 416 463 394 q 389 450 419 438 q 328 463 360 463 q 265 450 294 463 q 213 416 235 438 q 178 364 191 394 q 166 301 166 334 q 178 238 166 268 q 213 187 191 208 q 264 152 234 165 q 328 139 294 139 q 418 166 378 139 q 477 238 458 194 m 226 629 l 202 766 l 430 806 l 454 669 l 226 629 z "},"Ô":{"ha":656,"x_min":27,"x_max":629,"o":"m 496 550 q 418 588 460 574 q 328 602 375 602 q 212 579 267 602 q 116 515 157 556 q 51 419 75 474 q 27 301 27 365 q 50 183 27 238 q 115 88 74 129 q 211 24 156 47 q 328 0 266 0 q 444 24 389 0 q 540 88 499 47 q 605 183 581 129 q 629 301 629 238 q 592 444 629 380 q 496 550 556 508 m 477 238 q 418 166 458 194 q 328 139 378 139 q 264 152 294 139 q 213 187 234 165 q 178 238 191 208 q 166 301 166 268 q 178 364 166 334 q 213 416 191 394 q 265 450 235 438 q 328 463 294 463 q 389 450 360 463 q 441 416 419 438 q 476 365 463 394 q 490 301 490 335 q 477 238 490 269 m 384 625 l 328 716 l 270 625 l 153 698 l 244 844 q 275 877 255 862 q 328 893 295 893 q 378 877 357 893 q 411 844 399 862 l 502 698 l 384 625 z "},"Õ":{"ha":658,"x_min":28,"x_max":630,"o":"m 497 550 q 593 444 556 508 q 630 301 630 380 q 606 183 630 238 q 541 88 581 129 q 445 24 500 47 q 329 0 390 0 q 212 24 267 0 q 116 88 157 47 q 51 183 75 129 q 28 301 28 238 q 52 419 28 365 q 117 515 76 474 q 213 579 158 556 q 329 602 268 602 q 419 588 376 602 q 497 550 461 574 m 478 238 q 491 301 491 269 q 477 365 491 335 q 442 416 464 394 q 390 450 419 438 q 329 463 361 463 q 266 450 295 463 q 214 416 236 438 q 179 364 192 394 q 167 301 167 334 q 179 238 167 268 q 213 187 192 208 q 265 152 235 165 q 329 139 294 139 q 419 166 379 139 q 478 238 459 194 m 169 602 q 153 659 153 628 q 162 704 153 682 q 187 741 171 725 q 224 767 203 757 q 269 776 244 776 q 325 761 298 776 q 369 718 353 745 q 377 709 372 713 q 389 706 382 706 q 412 730 412 711 q 409 741 412 735 l 489 787 q 505 730 505 761 q 495 684 505 706 q 470 647 486 663 q 433 622 455 631 q 389 613 412 613 q 332 628 359 613 q 289 671 305 643 q 280 680 285 676 q 269 683 275 683 q 245 659 245 678 q 248 648 245 654 l 169 602 z "},"Ö":{"ha":657,"x_min":28,"x_max":630,"o":"m 167 718 q 187 767 167 746 q 236 787 207 787 q 286 767 266 787 q 306 718 306 746 q 286 668 306 688 q 236 648 266 648 q 187 668 207 648 q 167 718 167 688 m 352 718 q 372 767 352 746 q 421 787 393 787 q 471 767 451 787 q 491 718 491 746 q 471 668 491 688 q 421 648 451 648 q 372 668 393 648 q 352 718 352 688 m 497 550 q 419 588 461 574 q 329 602 376 602 q 211 578 266 602 q 116 513 156 554 q 51 417 75 471 q 28 301 28 362 q 51 184 28 239 q 116 88 75 130 q 211 24 156 47 q 329 0 266 0 q 445 23 391 0 q 541 87 500 46 q 606 183 582 128 q 630 301 630 238 q 594 444 630 380 q 497 550 557 509 m 478 238 q 419 166 459 193 q 329 139 379 139 q 266 151 295 139 q 214 186 236 164 q 179 238 192 208 q 167 301 167 268 q 179 363 167 333 q 213 415 192 393 q 265 450 235 437 q 329 463 294 463 q 393 450 363 463 q 444 415 422 437 q 478 363 466 393 q 491 301 491 334 q 478 238 491 269 z "},"Ù":{"ha":523,"x_min":31,"x_max":494,"o":"m 355 231 q 348 196 355 213 q 328 166 341 179 q 299 146 316 154 q 262 139 281 139 q 227 146 244 139 q 198 165 210 153 q 177 194 185 177 q 169 231 169 211 l 169 602 l 31 602 l 31 231 q 49 141 31 183 q 99 68 68 99 q 173 18 131 36 q 262 0 215 0 q 352 18 310 0 q 426 67 394 36 q 475 140 457 98 q 494 231 494 182 l 494 602 l 355 602 l 355 231 m 136 669 l 160 806 l 388 766 l 364 629 l 136 669 z "},"Ú":{"ha":523,"x_min":30,"x_max":493,"o":"m 354 602 l 493 602 l 493 231 q 475 140 493 182 q 425 67 456 98 q 351 18 394 36 q 261 0 309 0 q 172 18 214 0 q 98 68 130 36 q 48 141 67 99 q 30 231 30 183 l 30 602 l 169 602 l 169 231 q 176 194 169 211 q 197 165 184 177 q 226 146 209 153 q 261 139 243 139 q 298 146 281 139 q 327 166 315 154 q 347 196 340 179 q 354 231 354 213 l 354 602 m 159 629 l 135 766 l 363 806 l 387 669 l 159 629 z "},"Û":{"ha":522,"x_min":30,"x_max":493,"o":"m 354 231 q 347 196 354 213 q 327 166 340 179 q 298 146 315 154 q 261 139 281 139 q 226 146 243 139 q 197 165 209 153 q 176 194 184 177 q 169 231 169 211 l 169 602 l 30 602 l 30 231 q 48 141 30 183 q 98 68 67 99 q 172 18 130 36 q 261 0 214 0 q 351 18 309 0 q 425 67 394 36 q 475 140 456 98 q 493 231 493 182 l 493 602 l 354 602 l 354 231 m 318 625 l 261 716 l 204 625 l 86 698 l 177 844 q 208 877 188 862 q 261 893 229 893 q 312 877 291 893 q 344 844 332 862 l 435 698 l 318 625 z "},"Ü":{"ha":526,"x_min":31,"x_max":494,"o":"m 356 602 l 356 231 q 348 195 356 212 q 328 165 341 178 q 299 146 316 153 q 263 139 282 139 q 228 146 244 139 q 198 165 211 153 q 178 195 185 178 q 170 231 170 212 l 170 602 l 31 602 l 31 231 q 50 140 31 182 q 99 67 68 98 q 172 18 130 36 q 263 0 214 0 q 353 18 311 0 q 427 68 395 36 q 476 141 458 99 q 494 231 494 183 l 494 602 l 356 602 m 101 718 q 121 767 101 746 q 170 787 141 787 q 219 767 199 787 q 240 718 240 746 q 219 668 240 688 q 170 648 199 648 q 121 668 141 648 q 101 718 101 688 m 286 718 q 306 767 286 746 q 356 787 326 787 q 405 767 384 787 q 425 718 425 746 q 405 668 425 688 q 356 648 384 648 q 306 668 326 648 q 286 718 286 688 z "},"a":{"ha":530,"x_min":33,"x_max":496,"o":"m 394 562 q 469 480 441 531 q 496 370 496 429 l 496 0 l 357 0 l 357 231 l 172 231 l 172 0 l 33 0 l 33 370 q 52 461 33 419 q 102 534 70 503 q 175 584 133 566 q 265 602 218 602 q 334 591 301 602 q 394 562 367 581 m 357 370 q 350 407 357 390 q 330 437 343 424 q 300 456 317 449 q 265 463 283 463 q 228 456 245 463 q 199 435 211 448 q 179 406 186 422 q 172 370 172 389 l 357 370 z "},"b":{"ha":660,"x_min":34,"x_max":636,"o":"m 503 550 q 600 444 564 508 q 636 301 636 380 q 612 183 636 238 q 547 88 588 129 q 451 24 506 47 q 335 0 396 0 l 334 0 q 218 24 272 0 q 122 88 163 47 q 58 183 81 129 q 34 301 34 238 l 34 926 l 173 926 l 173 555 q 249 589 206 577 q 335 602 291 602 q 425 588 382 602 q 503 550 468 574 m 484 238 q 497 301 497 269 q 484 365 497 335 q 448 416 470 394 q 397 450 426 438 q 335 463 368 463 q 271 450 301 463 q 220 415 242 437 q 186 364 198 394 q 173 301 173 334 q 186 236 173 266 q 221 185 199 206 q 273 151 244 163 q 335 139 302 139 q 425 167 385 139 q 484 238 466 194 z "},"f":{"ha":415,"x_min":32,"x_max":391,"o":"m 220 904 q 334 926 276 926 q 391 920 363 926 l 365 784 q 334 787 349 787 q 267 773 297 787 q 216 736 237 759 q 183 684 194 713 q 171 625 171 656 l 171 370 l 310 370 l 310 231 l 171 231 l 171 0 l 32 0 l 32 625 q 46 714 32 671 q 85 794 60 757 q 144 858 110 830 q 220 904 179 887 z "},"e":{"ha":572,"x_min":29,"x_max":543,"o":"m 269 451 q 219 419 242 441 q 183 370 196 397 l 399 370 l 399 231 l 183 231 q 246 163 206 186 q 330 139 286 139 q 391 150 361 139 q 444 186 420 162 l 543 88 q 444 22 499 44 q 330 0 389 0 q 204 27 259 0 q 109 97 148 54 q 50 194 70 140 q 29 301 29 247 q 55 424 29 369 q 124 519 81 480 q 220 580 166 558 q 330 602 274 602 q 444 580 389 602 q 543 514 499 557 l 444 416 q 391 451 420 440 q 330 463 361 463 q 269 451 297 463 z "},"d":{"ha":660,"x_min":24,"x_max":626,"o":"m 487 926 l 626 926 l 626 301 q 602 182 626 237 q 537 87 578 127 q 441 23 495 46 q 325 0 386 0 q 209 24 264 0 q 113 88 154 47 q 48 183 72 129 q 24 301 24 238 q 48 418 24 363 q 113 514 71 473 q 208 578 154 555 q 325 602 263 602 q 411 589 369 602 q 487 555 452 577 l 487 926 m 474 238 q 487 301 487 269 q 475 363 487 334 q 440 415 462 393 q 389 450 419 437 q 325 463 359 463 q 261 450 291 463 q 210 415 231 437 q 175 363 188 393 q 163 301 163 333 q 176 236 163 266 q 212 185 190 206 q 263 151 234 164 q 325 139 293 139 q 416 167 376 139 q 474 238 456 194 z "},"€":{"ha":643,"x_min":28,"x_max":611,"o":"m 335 681 q 286 649 307 669 q 252 602 265 628 l 398 602 l 398 463 l 236 463 l 236 440 l 398 440 l 398 301 l 266 301 q 322 250 287 269 q 398 231 356 231 q 462 244 433 231 q 513 279 491 256 l 611 181 q 516 116 569 139 q 398 93 462 93 q 300 109 346 93 q 218 153 255 125 q 154 219 181 181 q 112 301 127 256 l 28 301 l 28 440 l 97 440 l 97 463 l 28 463 l 28 602 l 106 602 q 144 694 117 651 q 210 767 171 736 q 297 816 249 798 q 398 833 345 833 q 515 810 460 833 q 611 745 569 786 l 513 646 q 462 681 491 668 q 398 694 433 694 q 335 681 366 694 z "},"š":{"ha":431,"x_min":31,"x_max":401,"o":"m 165 640 q 146 656 154 647 q 132 674 138 664 l 42 819 l 159 893 l 216 802 l 273 893 l 391 819 l 300 674 q 266 640 286 655 q 216 625 245 625 q 165 640 188 625 m 319 339 q 379 274 356 313 q 401 185 401 234 q 387 113 401 147 q 347 55 372 80 q 288 15 322 30 q 216 0 255 0 l 54 0 l 54 139 l 216 139 q 250 153 237 139 q 262 185 262 168 q 248 218 262 205 q 216 231 234 231 q 144 246 178 231 q 85 285 110 260 q 45 344 60 310 q 31 417 31 378 q 45 488 31 455 q 84 547 59 522 q 143 587 109 572 q 216 602 177 602 l 378 602 l 378 463 l 216 463 q 183 449 197 463 q 169 417 169 435 q 183 383 169 396 q 216 370 197 370 q 271 362 244 370 q 319 339 297 354 z "},"ž":{"ha":413,"x_min":31,"x_max":381,"o":"m 381 819 l 290 674 q 257 640 278 656 q 206 625 236 625 q 154 640 174 625 q 122 674 133 656 l 31 819 l 149 893 l 206 802 l 263 893 l 381 819 m 341 563 q 369 522 359 545 q 380 475 380 499 q 370 424 380 448 q 345 379 360 400 l 181 144 q 178 139 179 140 l 183 139 l 369 139 l 369 0 l 183 0 q 126 8 153 0 q 78 33 99 17 q 45 73 57 49 q 33 127 33 96 q 42 177 33 153 q 67 223 51 202 l 231 458 q 233 461 232 460 q 234 463 233 461 l 230 463 l 44 463 l 44 602 l 230 602 q 289 593 260 602 q 341 563 318 584 z "},"¦":{"ha":210,"x_min":37,"x_max":176,"o":"m 37 972 l 176 972 l 176 509 l 37 509 l 37 972 m 37 417 l 176 417 l 176 -46 l 37 -46 l 37 417 z "},"Š":{"ha":431,"x_min":31,"x_max":401,"o":"m 165 640 q 146 656 154 647 q 132 674 138 664 l 42 819 l 159 893 l 216 802 l 273 893 l 391 819 l 300 674 q 266 640 286 655 q 216 625 245 625 q 165 640 188 625 m 319 339 q 379 274 356 313 q 401 185 401 234 q 387 113 401 147 q 347 55 372 80 q 288 15 322 30 q 216 0 255 0 l 54 0 l 54 139 l 216 139 q 250 153 237 139 q 262 185 262 168 q 248 218 262 205 q 216 231 234 231 q 144 246 178 231 q 85 285 110 260 q 45 344 60 310 q 31 417 31 378 q 45 488 31 455 q 84 547 59 522 q 143 587 109 572 q 216 602 177 602 l 378 602 l 378 463 l 216 463 q 183 449 197 463 q 169 417 169 435 q 183 383 169 396 q 216 370 197 370 q 271 362 244 370 q 319 339 297 354 z "},"Ž":{"ha":412,"x_min":31,"x_max":381,"o":"m 381 819 l 290 674 q 257 640 278 656 q 206 625 236 625 q 154 640 174 625 q 122 674 133 656 l 31 819 l 149 893 l 206 802 l 263 893 l 381 819 m 341 563 q 369 522 359 545 q 380 475 380 499 q 370 424 380 448 q 345 379 360 400 l 181 144 q 178 139 179 140 l 183 139 l 369 139 l 369 0 l 183 0 q 126 8 153 0 q 78 33 99 17 q 45 73 57 49 q 33 127 33 96 q 42 177 33 153 q 67 223 51 202 l 231 458 q 233 461 232 460 q 234 463 233 461 l 230 463 l 44 463 l 44 602 l 230 602 q 289 593 260 602 q 341 563 318 584 z "},"×":{"ha":485,"x_min":30,"x_max":456,"o":"m 456 416 l 341 301 l 456 186 l 357 88 l 243 203 l 128 88 l 30 186 l 144 301 l 30 416 l 128 514 l 243 399 l 357 514 l 456 416 z "},"ð":{"ha":681,"x_min":25,"x_max":651,"o":"m 651 724 l 559 707 l 622 350 q 625 324 624 337 q 627 297 627 310 q 604 181 627 236 q 540 86 581 127 q 445 20 500 44 q 326 -4 390 -4 q 212 19 266 -4 q 116 83 157 43 q 50 178 74 123 q 25 297 25 233 q 48 413 25 358 q 112 509 71 468 q 207 574 152 550 q 327 598 262 598 q 442 575 385 598 l 423 683 l 331 668 l 307 804 l 398 820 l 385 895 l 522 919 l 535 844 l 627 860 l 651 724 m 451 194 q 488 297 488 238 q 475 361 488 331 q 440 413 462 391 q 388 447 418 434 q 327 459 359 459 q 262 446 292 459 q 211 410 232 432 q 176 359 189 388 q 164 297 164 330 q 167 269 164 283 l 98 257 l 167 269 q 187 214 172 239 q 224 172 202 189 q 272 145 245 155 q 326 135 298 135 q 396 151 364 135 q 451 194 429 167 z "},"þ":{"ha":569,"x_min":36,"x_max":545,"o":"m 444 493 q 518 410 490 461 q 545 301 545 359 q 527 211 545 253 q 477 137 508 169 q 403 88 445 106 q 314 69 361 69 l 175 69 l 175 -162 l 36 -162 l 36 764 l 175 764 l 175 532 l 314 532 q 383 522 350 532 q 444 493 416 511 m 399 265 q 406 301 406 282 q 399 338 406 320 q 379 367 392 355 q 349 387 366 380 q 314 394 332 394 l 175 394 l 175 208 l 314 208 q 366 224 343 208 q 399 265 389 240 z "},"ý":{"ha":519,"x_min":26,"x_max":489,"o":"m 350 602 l 489 602 l 489 -46 q 465 -165 489 -110 q 400 -261 441 -220 q 304 -324 358 -301 q 188 -347 249 -347 l 188 -208 q 251 -196 221 -208 q 303 -161 281 -183 q 338 -109 325 -139 q 350 -46 350 -80 l 350 19 q 348 19 349 19 q 257 0 306 0 q 168 18 210 0 q 94 68 126 36 q 44 141 63 99 q 26 231 26 183 l 26 602 l 165 602 l 165 231 q 173 194 165 211 q 193 165 181 177 q 222 146 206 153 q 257 139 239 139 q 294 146 277 139 q 323 165 310 153 q 343 195 335 178 q 350 231 350 212 l 350 602 m 156 629 l 131 766 l 359 806 l 383 669 l 156 629 z "},"Ð":{"ha":681,"x_min":25,"x_max":651,"o":"m 651 724 l 559 707 l 622 350 q 625 324 624 337 q 627 297 627 310 q 604 181 627 236 q 540 86 581 127 q 445 20 500 44 q 326 -4 390 -4 q 212 19 266 -4 q 116 83 157 43 q 50 178 74 123 q 25 297 25 233 q 48 413 25 358 q 112 509 71 468 q 207 574 152 550 q 327 598 262 598 q 442 575 385 598 l 423 683 l 331 668 l 307 804 l 398 820 l 385 895 l 522 919 l 535 844 l 627 860 l 651 724 m 451 194 q 488 297 488 238 q 475 361 488 331 q 440 413 462 391 q 388 447 418 434 q 327 459 359 459 q 262 446 292 459 q 211 410 232 432 q 176 359 189 388 q 164 297 164 330 q 167 269 164 283 l 98 257 l 167 269 q 187 214 172 239 q 224 172 202 189 q 272 145 245 155 q 326 135 298 135 q 396 151 364 135 q 451 194 429 167 z "},"Ý":{"ha":519,"x_min":26,"x_max":489,"o":"m 350 602 l 489 602 l 489 -46 q 465 -165 489 -110 q 400 -261 441 -220 q 304 -324 358 -301 q 188 -347 249 -347 l 188 -208 q 251 -196 221 -208 q 303 -161 281 -183 q 338 -109 325 -139 q 350 -46 350 -80 l 350 19 q 348 19 349 19 q 257 0 306 0 q 168 18 210 0 q 94 68 126 36 q 44 141 63 99 q 26 231 26 183 l 26 602 l 165 602 l 165 231 q 173 194 165 211 q 193 165 181 177 q 222 146 206 153 q 257 139 239 139 q 294 146 277 139 q 323 165 310 153 q 343 195 335 178 q 350 231 350 212 l 350 602 m 156 629 l 131 766 l 359 806 l 383 669 l 156 629 z "},"Þ":{"ha":569,"x_min":36,"x_max":545,"o":"m 444 493 q 518 410 490 461 q 545 301 545 359 q 527 211 545 253 q 477 137 508 169 q 403 88 445 106 q 314 69 361 69 l 175 69 l 175 -162 l 36 -162 l 36 764 l 175 764 l 175 532 l 314 532 q 383 522 350 532 q 444 493 416 511 m 399 265 q 406 301 406 282 q 399 338 406 320 q 379 367 392 355 q 349 387 366 380 q 314 394 332 394 l 175 394 l 175 208 l 314 208 q 366 224 343 208 q 399 265 389 240 z "},"­":{"ha":396,"x_min":36,"x_max":360,"o":"m 36 370 l 360 370 l 360 231 l 36 231 l 36 370 z "},"¼":{"ha":1285,"x_min":27,"x_max":1112,"o":"m 166 833 q 215 813 194 833 q 235 764 235 793 l 235 0 l 96 0 l 96 694 l 27 694 l 27 833 l 166 833 l 166 833 m 611 982 l 424 -81 l 287 -56 l 475 1006 l 611 982 m 1043 370 q 1092 350 1071 370 q 1112 301 1112 330 l 1112 0 l 973 0 l 973 231 l 719 231 q 692 237 705 231 q 670 252 680 243 q 655 274 660 261 q 649 300 649 286 q 650 313 649 308 l 744 845 l 881 821 l 801 370 l 1043 370 l 1043 370 z "},"½":{"ha":1351,"x_min":27,"x_max":1170,"o":"m 166 833 q 215 813 194 833 q 235 764 235 793 l 235 0 l 96 0 l 96 694 l 27 694 l 27 833 l 166 833 l 166 833 m 611 982 l 424 -81 l 287 -56 l 475 1006 l 611 982 m 1148 645 q 1170 532 1170 591 q 1148 419 1170 474 q 1082 319 1126 364 l 902 139 l 1169 139 l 1169 0 l 734 0 q 686 19 706 0 q 665 69 665 39 q 685 119 665 98 l 984 418 q 1020 471 1008 442 q 1031 532 1031 500 q 1017 601 1031 571 q 979 652 1002 631 q 926 684 956 673 q 869 694 897 694 q 809 683 838 694 q 755 647 780 671 l 656 745 q 755 811 701 789 q 869 833 809 833 q 957 820 914 833 q 1037 781 1000 806 q 1102 722 1073 756 q 1148 645 1131 687 z "},"¾":{"ha":1580,"x_min":26,"x_max":1406,"o":"m 452 514 q 518 414 496 469 q 540 301 540 359 q 513 177 540 232 q 445 82 487 121 q 349 21 403 43 q 239 0 294 0 q 125 22 181 0 q 26 88 70 44 l 125 186 q 178 150 149 162 q 239 139 207 139 q 306 153 276 139 q 357 190 336 168 q 390 242 379 213 q 401 301 401 271 q 387 368 401 338 q 350 419 373 397 q 298 451 327 440 q 239 463 269 463 l 239 602 q 273 616 260 602 q 285 648 285 630 q 270 682 285 669 q 239 694 256 694 l 169 694 l 169 833 l 239 833 q 313 818 279 833 q 371 777 346 803 q 410 718 396 752 q 424 648 424 684 q 418 601 424 623 q 400 556 411 579 q 452 514 429 537 m 906 982 l 719 -81 l 581 -56 l 769 1006 l 906 982 m 1337 370 q 1386 350 1366 370 q 1406 301 1406 330 l 1406 0 l 1268 0 l 1268 231 l 1013 231 q 987 237 999 231 q 964 252 974 243 q 949 274 955 261 q 944 300 944 286 q 944 313 944 308 l 1038 845 l 1175 821 l 1095 370 l 1337 370 l 1337 370 z "}}}
